<svg opacity="0.7" xmlns="http://www.w3.org/2000/svg" xmlns:xlink="http://www.w3.org/1999/xlink" viewBox="0 0 310 510" version="1.0"><defs><radialGradient id="h" xlink:href="#a" gradientUnits="userSpaceOnUse" cy="295.22" cx="238" gradientTransform="matrix(1 0 0 1.336 117 135.79)" r="81"/><radialGradient id="i" gradientUnits="userSpaceOnUse" cy="295.22" cx="238" gradientTransform="matrix(1.204 0 0 1.8074 68.442 -3.365)" r="81"><stop stop-color="#71ff89" stop-opacity="0" offset="0"/><stop stop-color="#07dd00" offset="1"/></radialGradient><radialGradient id="j" xlink:href="#b" gradientUnits="userSpaceOnUse" cy="221.08" cx="157" gradientTransform="matrix(0 2.9354 -1.1157 0 520.66 -38.859)" r="72.859"/><radialGradient id="k" gradientUnits="userSpaceOnUse" cy="357.45" cx="319" gradientTransform="matrix(.96916 -1.6344 1.5736 .93311 -435.67 826.28)" r="55.438"><stop stop-color="#08f100" offset="0"/><stop stop-color="#6edd00" stop-opacity="0" offset="1"/></radialGradient><radialGradient id="l" xlink:href="#b" gradientUnits="userSpaceOnUse" cy="222.73" cx="230.36" gradientTransform="matrix(1.7549 .01928 -.00766 1.0097 -67.188 220.96)" r="62.046"/><radialGradient id="p" xlink:href="#a" gradientUnits="userSpaceOnUse" cy="295.22" cx="238" gradientTransform="matrix(1 0 0 1.336 220 -102.21)" r="81"/><radialGradient id="q" gradientUnits="userSpaceOnUse" cy="295.22" cx="238" gradientTransform="matrix(1.204 0 0 1.8074 171.44 -241.36)" r="81"><stop stop-color="#71d9ff" stop-opacity="0" offset="0"/><stop stop-color="#0093dd" offset="1"/></radialGradient><radialGradient id="r" xlink:href="#b" gradientUnits="userSpaceOnUse" cy="221.08" cx="157" gradientTransform="matrix(0 2.9354 -1.1157 0 623.66 -276.86)" r="72.859"/><radialGradient id="s" gradientUnits="userSpaceOnUse" cy="357.45" cx="319" gradientTransform="matrix(.96916 -1.6344 1.5736 .93311 -332.67 588.28)" r="55.438"><stop stop-color="#00d1f1" offset="0"/><stop stop-color="#0058dd" stop-opacity="0" offset="1"/></radialGradient><radialGradient id="t" xlink:href="#b" gradientUnits="userSpaceOnUse" cy="222.73" cx="230.36" gradientTransform="matrix(1.7549 .01928 -.00766 1.0097 35.812 -17.044)" r="62.046"/><radialGradient id="x" xlink:href="#a" gradientUnits="userSpaceOnUse" cy="295.22" cx="238" gradientTransform="matrix(1 0 0 1.336 0 -99.207)" r="81"/><radialGradient id="y" gradientUnits="userSpaceOnUse" cy="295.22" cx="238" gradientTransform="matrix(1.204 0 0 1.8145 -48.558 -240.44)" r="81"><stop stop-color="#ff7171" stop-opacity="0" offset="0"/><stop stop-color="#d00" offset="1"/></radialGradient><radialGradient id="z" xlink:href="#b" gradientUnits="userSpaceOnUse" cy="221.08" cx="157" gradientTransform="matrix(0 2.9354 -1.147 0 410.58 -273.86)" r="72.859"/><radialGradient id="A" xlink:href="#f" gradientUnits="userSpaceOnUse" cy="357.45" cx="319" gradientTransform="matrix(1 -1.655 1.5658 .94614 -559.72 593.18)" r="55.438"/><radialGradient id="B" xlink:href="#b" gradientUnits="userSpaceOnUse" cy="222.73" cx="230.36" gradientTransform="matrix(1.7549 .01928 -.00766 1.0097 -184.19 -14.044)" r="62.046"/><radialGradient id="F" xlink:href="#a" gradientUnits="userSpaceOnUse" cy="295.22" cx="238" gradientTransform="matrix(1 0 0 1.336 184 145.79)" r="81"/><radialGradient id="G" gradientUnits="userSpaceOnUse" cy="295.22" cx="238" gradientTransform="matrix(1.204 0 0 1.8074 135.44 6.635)" r="81"><stop stop-color="#ffe371" stop-opacity="0" offset="0"/><stop stop-color="#dda200" offset="1"/></radialGradient><radialGradient id="H" xlink:href="#b" gradientUnits="userSpaceOnUse" cy="221.08" cx="157" gradientTransform="matrix(0 2.9354 -1.1157 0 587.66 -28.859)" r="72.859"/><radialGradient id="I" gradientUnits="userSpaceOnUse" cy="357.45" cx="319" gradientTransform="matrix(.96916 -1.6344 1.5736 .93311 -368.67 836.28)" r="55.438"><stop stop-color="#f1b900" offset="0"/><stop stop-color="#ddb800" stop-opacity="0" offset="1"/></radialGradient><radialGradient id="J" xlink:href="#b" gradientUnits="userSpaceOnUse" cy="222.73" cx="230.36" gradientTransform="matrix(1.7549 .01928 -.00766 1.0097 -.188 230.96)" r="62.046"/><linearGradient id="d"><stop stop-color="#f2f2f2" offset="0"/><stop stop-color="#c3c3c3" offset=".5"/><stop stop-color="#bdbdb5" offset=".5"/><stop stop-color="#f2f2f2" offset=".875"/><stop stop-color="#eeeeec" offset="1"/></linearGradient><linearGradient id="g"><stop stop-color="#f19900" offset="0"/><stop stop-color="#ddb100" stop-opacity="0" offset="1"/></linearGradient><linearGradient id="c"><stop stop-color="#40f100" offset="0"/><stop stop-color="#3bdd00" stop-opacity="0" offset="1"/></linearGradient><linearGradient id="e"><stop stop-color="#00a1f1" offset="0"/><stop stop-color="#0085dd" stop-opacity="0" offset="1"/></linearGradient><linearGradient id="f"><stop stop-color="#f10000" offset="0"/><stop stop-color="#d00" stop-opacity="0" offset="1"/></linearGradient><linearGradient id="a"><stop stop-color="#fff" stop-opacity="0" offset="0"/><stop stop-color="#f77" offset="1"/></linearGradient><linearGradient id="b"><stop stop-color="#fff" offset="0"/><stop stop-color="#fff" stop-opacity="0" offset="1"/></linearGradient><linearGradient id="m" x1="243.46" xlink:href="#c" gradientUnits="userSpaceOnUse" y1="403.14" gradientTransform="translate(117 235)" x2="243.46" y2="395.82"/><linearGradient id="n" x1="236.42" xlink:href="#c" gradientUnits="userSpaceOnUse" y1="400.61" gradientTransform="translate(117 235)" x2="231.55" y2="396.46"/><linearGradient id="o" x1="285.79" xlink:href="#d" spreadMethod="reflect" gradientUnits="userSpaceOnUse" y1="634.36" x2="271.79" y2="566.74"/><linearGradient id="u" x1="243.46" xlink:href="#e" gradientUnits="userSpaceOnUse" y1="403.14" gradientTransform="translate(220 -3)" x2="243.46" y2="395.82"/><linearGradient id="v" x1="236.42" xlink:href="#e" gradientUnits="userSpaceOnUse" y1="400.61" gradientTransform="translate(220 -3)" x2="231.55" y2="396.46"/><linearGradient id="w" x1="279.92" xlink:href="#d" spreadMethod="reflect" gradientUnits="userSpaceOnUse" y1="599.63" x2="262.92" y2="530.63"/><linearGradient id="C" x1="243.46" xlink:href="#f" gradientUnits="userSpaceOnUse" x2="243.46" y1="403.14" y2="395.82"/><linearGradient id="D" x1="236.42" xlink:href="#f" gradientUnits="userSpaceOnUse" x2="231.55" y1="400.61" y2="396.46"/><linearGradient id="E" x1="207.78" xlink:href="#d" spreadMethod="reflect" gradientUnits="userSpaceOnUse" y1="631.18" x2="226.01" y2="585.34"/><linearGradient id="K" x1="243.46" xlink:href="#g" gradientUnits="userSpaceOnUse" y1="403.14" gradientTransform="translate(184 245)" x2="243.46" y2="395.82"/><linearGradient id="L" x1="236.42" xlink:href="#g" gradientUnits="userSpaceOnUse" y1="400.61" gradientTransform="translate(184 245)" x2="231.55" y2="396.46"/><linearGradient id="M" x1="279.74" xlink:href="#d" spreadMethod="reflect" gradientUnits="userSpaceOnUse" y1="531.27" x2="279.74" y2="485.27"/></defs><path fill="url(#h)" d="M355 422c-44.712 0-81 26.592-81 84 0 55.049 48.062 118.53 77.344 123.66-1.04.73-2.426 1.031-3.594 3.938-1.868 4.65 4.784.996 4.875.093.194-1.92 3.372 1.603 4.531 3.625s3.116.826 3.438.219c.322-.607-.037-3.704-.781-5.375-.783-1.755-1.217-1.288-2.157-2.344 29.15-3.84 78.34-68.15 78.34-123.82 0-57.408-36.288-84-81-84z" transform="matrix(.99865 .31609 -.31937 .98838 25.116 -501.101)"/><path fill="url(#i)" d="M355 422c-44.712 0-81 26.592-81 84 0 55.049 48.062 118.53 77.344 123.66-1.04.73-2.426 1.031-3.594 3.938-1.868 4.65 4.784.996 4.875.093.194-1.92 3.372 1.603 4.531 3.625s3.116.826 3.438.219c.322-.607-.037-3.704-.781-5.375-.783-1.755-1.217-1.288-2.157-2.344 29.15-3.84 78.34-68.15 78.34-123.82 0-57.408-36.288-84-81-84z" transform="matrix(.99865 .31609 -.31937 .98838 25.116 -501.101)"/><path opacity=".5" fill="url(#j)" d="M355 422c-44.712 0-81 26.592-81 84 0 47.131 35.239 100.42 63.75 118-22.293-24.559-42.656-63.918-42.656-99.75 0-57.408 36.288-84 81-84 16.071 0 31.024 3.464 43.625 10.531-14.79-19.48-38.28-28.78-64.72-28.78zm-7.344 211.84c-.782 2.208.565 2.29 2.063 1.75-.689-.575-1.372-1.141-2.063-1.75z" transform="matrix(.99865 .31609 -.31937 .98838 25.116 -501.101)"/><path opacity=".5" fill="url(#k)" d="M403.72 435.59c14.33 13.828 23.156 34.665 23.156 63 0 55.675-49.185 119.98-78.344 123.81-3.666 1.959-3.773 2.846-2.991 4.601.744 1.671 6.25 2.511 5.929 3.118-.213.4-1.124 1.058-2.063.875-.56.529-1.133 1.29-1.656 2.593-1.868 4.65 4.784.997 4.875.094.194-1.92 3.371 1.603 4.531 3.625s3.115.826 3.438.219c.322-.607-.037-3.704-.782-5.375-.782-1.755-1.216-1.288-2.156-2.344 29.15-3.81 78.34-68.12 78.34-123.79 0-33.944-12.668-57.136-32.28-70.406z" transform="matrix(.99865 .31609 -.31937 .98838 25.116 -501.101)"/><path opacity=".9" fill="url(#l)" d="M426.44 483.93c0 32.243-31.53 58.411-70.379 58.411s-70.379-26.168-70.379-58.411 31.53-58.411 70.379-58.411 70.379 26.168 70.379 58.411z" transform="matrix(.99865 .31609 -.31937 .98838 25.116 -501.101)"/><path fill-rule="evenodd" fill="url(#m)" d="M357.85 630.82s1.084.452 1.535 1.625c.452 1.174 1.355 4.245.994 4.787a2.142 2.142 0 01-1.355.903c-.452.09-.361-.813-.09-1.897.27-1.083.36-.993 0-2.618s-.903-2.71-1.084-2.8z" transform="matrix(.99865 .31609 -.31937 .98838 25.116 -501.101)"/><path fill-rule="evenodd" fill="url(#n)" d="M348.55 635.6s2.89-.993 3.251-1.535c.361-.542.452-1.265.903-1.445.452-.18.723-.813.723-.813l-1.626-.09s0-.994-1.445.903-1.716 3.07-1.806 2.98z" transform="matrix(.99865 .31609 -.31937 .98838 25.116 -501.101)"/><path fill="url(#o)" d="M276.53 363c-.567 8.522 6.019 10.012 1.501.375-17.182-9.773 8.876.426 7.715-.063-7.459-3.14-7.369-2.337-12.749-1.062-9.264 10.421-5.694 26.137-6.184 39.113-1.854 18.116 2.096 35.954 2.398 54.008 2.503 16.309-6.23 28.752-13.2 42.483-9.169 14.811-11.564 29.052-8.863 45.984 1.705 17.977 7.223 35.222 10.56 52.899 2.314 12.391 3.01 25.04 2.938 37.627h-2.73c.297-12.589.089-25.286-2.718-37.627-2.706-17.801-7.499-35.138-10.307-52.899-2.891-16.975-.154-30.903 8.478-45.984 6.994-13.759 15.71-26.134 14.241-42.483-1.244-17.998-3.881-36.006-3.447-54.008.71-12.956-3.32-28.555 5.627-39.113 1.8-.455 15.695.552 12.642 1.063-2.529.422-11.062-6.033-.848.062 8.684 16.347-23.045.971-1.123-.375h-3.931z" transform="translate(-101.244 -127.671)"/><g><path fill="url(#p)" d="M458 184c-44.712 0-81 26.592-81 84 0 55.049 48.062 118.53 77.344 123.66-1.04.73-2.426 1.031-3.594 3.937-1.868 4.65 4.784.997 4.875.094.194-1.92 3.372 1.603 4.531 3.625s3.116.826 3.438.219c.322-.607-.037-3.704-.781-5.375-.783-1.755-1.217-1.288-2.157-2.344 29.15-3.84 78.34-68.15 78.34-123.82 0-57.408-36.288-84-81-84z" transform="matrix(1.0294 -.0543 .05447 1.0263 -349.084 -161.309)"/><path fill="url(#q)" d="M458 184c-44.712 0-81 26.592-81 84 0 55.049 48.062 118.53 77.344 123.66-1.04.73-2.426 1.031-3.594 3.937-1.868 4.65 4.784.997 4.875.094.194-1.92 3.372 1.603 4.531 3.625s3.116.826 3.438.219c.322-.607-.037-3.704-.781-5.375-.783-1.755-1.217-1.288-2.157-2.344 29.15-3.84 78.34-68.15 78.34-123.82 0-57.408-36.288-84-81-84z" transform="matrix(1.0294 -.0543 .05447 1.0263 -349.084 -161.309)"/><path opacity=".5" fill="url(#r)" d="M458 184c-44.712 0-81 26.592-81 84 0 47.131 35.239 100.42 63.75 118-22.293-24.559-42.656-63.918-42.656-99.75 0-57.408 36.288-84 81-84 16.071 0 31.024 3.464 43.625 10.531-14.79-19.48-38.28-28.78-64.72-28.78zm-7.344 211.84c-.782 2.208.565 2.29 2.063 1.75-.689-.575-1.372-1.141-2.063-1.75z" transform="matrix(1.0294 -.0543 .05447 1.0263 -349.084 -161.309)"/><path opacity=".5" fill="url(#s)" d="M506.72 197.59c14.33 13.828 23.156 34.665 23.156 63 0 55.675-49.185 119.98-78.344 123.81-3.666 1.959-3.773 2.846-2.991 4.601.744 1.671 6.25 2.511 5.928 3.118-.212.4-1.124 1.058-2.062.875-.56.529-1.133 1.29-1.656 2.594-1.868 4.65 4.783.996 4.875.093.194-1.92 3.371 1.603 4.531 3.625s3.115.826 3.438.219c.322-.607-.037-3.704-.782-5.375-.782-1.755-1.216-1.288-2.156-2.344 29.15-3.81 78.34-68.12 78.34-123.79 0-33.944-12.668-57.136-32.281-70.406z" transform="matrix(1.0294 -.0543 .05447 1.0263 -349.084 -161.309)"/><path opacity=".9" fill="url(#t)" d="M529.44 245.93c0 32.243-31.53 58.411-70.379 58.411s-70.379-26.168-70.379-58.411 31.53-58.411 70.379-58.411 70.379 26.168 70.379 58.411z" transform="matrix(1.0294 -.0543 .05447 1.0263 -349.084 -161.309)"/><path fill-rule="evenodd" fill="url(#u)" d="M460.85 392.82s1.084.452 1.535 1.625c.452 1.174 1.355 4.245.994 4.787a2.142 2.142 0 01-1.355.903c-.452.09-.361-.813-.09-1.897.27-1.083.36-.993 0-2.618s-.903-2.71-1.084-2.8z" transform="matrix(1.0294 -.0543 .05447 1.0263 -349.084 -161.309)"/><path fill-rule="evenodd" fill="url(#v)" d="M451.55 397.6s2.89-.993 3.251-1.535c.361-.542.452-1.264.903-1.445.452-.18.723-.813.723-.813l-1.626-.09s0-.994-1.445.903-1.716 3.07-1.806 2.98z" transform="matrix(1.0294 -.0543 .05447 1.0263 -349.084 -161.309)"/><path fill="url(#w)" d="M249 342c-10.401-.57-17.423 8.45-4.027 9 10.01-1.424-4.186-8.179-3.422-6.719 2.597 4.964 10.788 11.636 14.347 16.883 7.031 15.158-8.735 23.773-13.447 37-6.528 16.521 3.236 24.918 13.063 36.49 10.578 11.06 30.483 15.563 22.613 34-9.368 10.888-13.744 23.992-17.012 37.68-5.324 15.315-6.23 31.088-6.452 47.141-2.672 20.77-.832 41.631.736 62.38 1.856 11.707.957 5.899 2.698 17.425h-2.107c-1.613-11.52-.82-5.712-2.379-17.425-3.161-20.82.044-41.433-.887-62.38-.082-16.008.546-31.756 5.527-47.14 3.494-13.416 8.093-26.672 16.837-37.68 9.02-18.165-11.212-23.31-21.993-34-10.53-11.279-19.462-19.955-13.242-36.492 4.746-13.1 20.123-21.825 13.329-36.999-12.841-19.687-1.355-19.223-4.904-10.164-15.59 1.632-19.332-6.39-3.277-9H249z" transform="translate(-101.244 -127.671)"/></g><g><path fill="url(#x)" d="M238 187c-44.712 0-81 26.592-81 84 0 55.049 48.062 118.53 77.344 123.66-1.04.73-2.426 1.031-3.594 3.937-1.868 4.65 4.784.997 4.875.094.194-1.92 3.372 1.603 4.531 3.625s3.116.826 3.438.219c.322-.607-.037-3.704-.781-5.375-.783-1.755-1.217-1.288-2.157-2.344 29.15-3.84 78.34-68.15 78.34-123.82 0-57.408-36.288-84-81-84z" transform="rotate(-10.195 -745.618 1036.357)"/><path fill="url(#y)" d="M238 187c-44.712 0-81 26.592-81 84 0 55.049 48.062 118.53 77.344 123.66-1.04.73-2.426 1.031-3.594 3.937-1.868 4.65 4.784.997 4.875.094.194-1.92 3.372 1.603 4.531 3.625s3.116.826 3.438.219c.322-.607-.037-3.704-.781-5.375-.783-1.755-1.217-1.288-2.157-2.344 29.15-3.84 78.34-68.15 78.34-123.82 0-57.408-36.288-84-81-84z" transform="rotate(-10.195 -745.618 1036.357)"/><path opacity=".5" fill="url(#z)" d="M238 187c-44.712 0-81 26.592-81 84 0 47.131 35.239 100.42 63.75 118-22.293-24.559-42.656-63.918-42.656-99.75 0-57.408 36.288-84 81-84 16.071 0 31.024 3.464 43.625 10.531-14.79-19.48-38.28-28.78-64.72-28.78zm-7.344 211.84c-.782 2.208.565 2.29 2.063 1.75-.689-.575-1.372-1.141-2.063-1.75z" transform="rotate(-10.195 -745.618 1036.357)"/><path opacity=".5" fill="url(#A)" d="M286.72 200.59c14.33 13.828 23.156 34.665 23.156 63 0 55.675-49.185 119.98-78.344 123.81-3.666 1.959-3.773 2.846-2.991 4.601.744 1.671 6.25 2.511 5.929 3.118-.213.4-1.124 1.058-2.063.875-.56.529-1.133 1.29-1.656 2.594-1.868 4.65 4.784.996 4.875.093.194-1.92 3.371 1.603 4.531 3.625s3.115.826 3.438.219c.322-.607-.037-3.704-.782-5.375-.782-1.755-1.216-1.288-2.156-2.344 29.15-3.81 78.34-68.12 78.34-123.79 0-33.944-12.668-57.136-32.28-70.406z" transform="rotate(-10.195 -745.618 1036.357)"/><path opacity=".9" fill="url(#B)" d="M309.44 248.93c0 32.243-31.53 58.411-70.379 58.411s-70.379-26.168-70.379-58.411 31.53-58.411 70.379-58.411 70.379 26.168 70.379 58.411z" transform="rotate(-10.195 -745.618 1036.357)"/><path fill-rule="evenodd" fill="url(#C)" d="M240.85 395.82s1.084.452 1.535 1.625c.452 1.174 1.355 4.245.994 4.787a2.142 2.142 0 01-1.355.903c-.452.09-.361-.813-.09-1.897.27-1.083.36-.993 0-2.618s-.903-2.71-1.084-2.8z" transform="rotate(-10.195 -745.618 1036.357)"/><path fill-rule="evenodd" fill="url(#D)" d="M231.55 400.6s2.89-.993 3.251-1.535c.361-.542.452-1.264.903-1.445.452-.18.723-.813.723-.813l-1.626-.09s0-.994-1.445.903-1.716 3.07-1.806 2.98z" transform="rotate(-10.195 -745.618 1036.357)"/><path fill="url(#E)" d="M215.41 361.5c-16.147 3.843 16.519 8.791-2.146 2.125-4.744 10.237-1.107 26.112 1.86 36.93 6.044 13.683 21.1 17.838 24.898 32.529-2.296 14.177-6.48 26.667-4.842 41.235 2.852 16.256 10.966 30.483 18.504 44.882 5.075 16.29-1.293 32.553-2.292 49.043-.043 14.378-1.486 28.818.57 43.08.575 7.045 3.449 13.396 6.046 19.851h-2.783c-2.58-6.444-5.202-12.798-5.547-19.851-2.513-14.24-1.424-28.699-.475-43.08 1.197-16.345 7.063-32.978 2.124-49.043-7.35-14.592-15.386-28.574-18.66-44.882-2.132-14.614 2.644-26.99 4.573-41.235-3.53-14.607-18.721-18.834-24.583-32.529-2.743-10.604-7.801-27.243-2.671-36.93 31.787-2.134-13.01 8.993 1.604-2.125h3.82z" transform="translate(-106.72 -130.409)"/></g><g><path fill="url(#F)" d="M422 432c-44.712 0-81 26.592-81 84 0 55.049 48.062 118.53 77.344 123.66-1.04.73-2.426 1.031-3.594 3.938-1.868 4.65 4.784.996 4.875.093.194-1.92 3.372 1.603 4.531 3.625s3.116.826 3.438.219c.322-.607-.037-3.704-.781-5.375-.783-1.755-1.217-1.288-2.157-2.344 29.15-3.84 78.34-68.15 78.34-123.82 0-57.408-36.288-84-81-84z" transform="matrix(.97836 .20691 -.20308 .96028 -109.403 -488.793)"/><path fill="url(#G)" d="M422 432c-44.712 0-81 26.592-81 84 0 55.049 48.062 118.53 77.344 123.66-1.04.73-2.426 1.031-3.594 3.938-1.868 4.65 4.784.996 4.875.093.194-1.92 3.372 1.603 4.531 3.625s3.116.826 3.438.219c.322-.607-.037-3.704-.781-5.375-.783-1.755-1.217-1.288-2.157-2.344 29.15-3.84 78.34-68.15 78.34-123.82 0-57.408-36.288-84-81-84z" transform="matrix(.97836 .20691 -.20308 .96028 -109.403 -488.793)"/><path opacity=".5" fill="url(#H)" d="M422 432c-44.712 0-81 26.592-81 84 0 47.131 35.239 100.42 63.75 118-22.293-24.559-42.656-63.918-42.656-99.75 0-57.408 36.288-84 81-84 16.071 0 31.024 3.464 43.625 10.531-14.79-19.48-38.28-28.78-64.72-28.78zm-7.344 211.84c-.782 2.208.565 2.29 2.063 1.75-.689-.575-1.372-1.141-2.063-1.75z" transform="matrix(.97836 .20691 -.20308 .96028 -109.403 -488.793)"/><path opacity=".5" fill="url(#I)" d="M470.72 445.59c14.33 13.828 23.156 34.665 23.156 63 0 55.675-49.185 119.98-78.344 123.81-3.666 1.959-3.773 2.846-2.991 4.601.744 1.671 6.25 2.511 5.929 3.118-.213.4-1.124 1.058-2.063.875-.56.529-1.133 1.29-1.656 2.593-1.868 4.65 4.784.997 4.875.094.194-1.92 3.371 1.603 4.531 3.625s3.115.826 3.438.219c.322-.607-.037-3.704-.782-5.375-.782-1.755-1.216-1.288-2.156-2.344 29.15-3.81 78.34-68.12 78.34-123.79 0-33.944-12.668-57.136-32.28-70.406z" transform="matrix(.97836 .20691 -.20308 .96028 -109.403 -488.793)"/><path opacity=".9" fill="url(#J)" d="M493.44 493.93c0 32.243-31.53 58.411-70.379 58.411s-70.379-26.168-70.379-58.411 31.53-58.411 70.379-58.411 70.379 26.168 70.379 58.411z" transform="matrix(.97836 .20691 -.20308 .96028 -109.403 -488.793)"/><path fill-rule="evenodd" fill="url(#K)" d="M424.85 640.82s1.084.452 1.535 1.625c.452 1.174 1.355 4.245.994 4.787a2.142 2.142 0 01-1.355.903c-.452.09-.361-.813-.09-1.897.27-1.083.36-.993 0-2.618s-.903-2.71-1.084-2.8z" transform="matrix(.97836 .20691 -.20308 .96028 -109.403 -488.793)"/><path fill-rule="evenodd" fill="url(#L)" d="M415.55 645.6s2.89-.993 3.251-1.535c.361-.542.452-1.265.903-1.445.452-.18.723-.813.723-.813l-1.626-.09s0-.994-1.445.903-1.716 3.07-1.806 2.98z" transform="matrix(.97836 .20691 -.20308 .96028 -109.403 -488.793)"/><path fill="url(#M)" d="M269.06 338.5c20.237 12.661 6.726-5.868-.047 10.875-2.384 14.782-5.44 29.248-5.455 44.273 2.45 14.183 6.22 27.839 6.338 42.377-1.112 14.044-7.413 26.772-10.158 40.527-.872 15.461-.455 30.823-2.04 46.244-1.55 15.342-3.063 30.659-3.723 46.07-.598 14.05.02 27.921 2.268 41.809 1.802 7.19 3.24 14.442 4.476 21.746h-2.722c-1.061-7.292-2.219-14.567-3.913-21.746-3.037-13.852-3.747-27.662-2.57-41.809.58-15.425 2.261-30.729 3.898-46.07 2.056-15.376.53-30.8 1.59-46.244 3.186-13.594 8.858-26.545 10.091-40.527-.082-14.586-3.424-28.138-5.932-42.377-.196-15.027 3.538-29.329 4.577-44.273 11.112-29.658 14.357 11.279 7.202-10.875h-3.88z" transform="translate(-101.244 -124.933)"/></g></svg>
