<svg width="1202" height="1886.2" xmlns="http://www.w3.org/2000/svg"><g stroke-width=".094"><path d="M570.51 2.062c8.96-1.44 18.07-1.17 27.09-2.01 32.36-.17 65.02 3.92 95.67 14.62 28.62 9.83 55.53 25.46 76.89 47.05 18.89 18.51 33.19 41.4 43.09 65.85 8.22 20.07 13.32 41.28 16.53 62.68-.05 1.54.98 3.45-.07 4.78-7.2.89-14.4 1.92-21.49 3.46-3.84-28.57-11.71-57.13-26.91-81.85-9-14.18-20.53-27.46-35.59-35.35 12.03 11.47 19.11 26.9 24.13 42.49 8.32 26.47 12.22 54.13 14.31 81.72-29 10.76-54.63 29.23-76.38 50.99-5.04 5.31-10.64 10.2-14.33 16.59-9.13 8.07-15.67 18.44-22.84 28.17-10.33 15.36-20.26 31.04-28.66 47.55-5.94 10.29-11.02 21.06-15.79 31.93-3.68 10.22-9.09 19.77-11.98 30.28-14.14-20.7-33.32-37.48-54.31-50.97-13.62-8.83-28.29-15.92-43.38-21.82-18.58-7.26-37.92-12.82-57.69-15.62 1.92-.08 3.86-.17 5.8-.25 1.19-.05 2.4-.11 3.61-.16-.47-10.67-1.53-21.3-2.6-31.92-.03-6.55-2.13-12.82-2.67-19.31-2.29-8.68-3.33-17.64-5.96-26.24-1.48-5.23-2.1-10.68-4.03-15.78-2.1-5.67-2.88-11.97-6.66-16.87-.62-10.55-.57-21.2.63-31.72 1.88-24.44 7.3-48.6 16.23-71.43 5.35-13.03 12.18-25.4 19.93-37.14 13.89-19.82 31.65-36.97 52.15-49.86 12.49-7.59 25.58-14.29 39.36-19.23-1.37-.23-2.73-.44-4.08-.63z" fill="#f78d66" stroke="#f78d66"/><path d="M453.8 43.532c34.91-22.81 75.53-36.01 116.71-41.47 1.35.19 2.71.4 4.08.63-13.78 4.94-26.87 11.64-39.36 19.23-20.5 12.89-38.26 30.04-52.15 49.86-7.75 11.74-14.58 24.11-19.93 37.14-8.93 22.83-14.35 46.99-16.23 71.43-1.2 10.52-1.25 21.17-.63 31.72-.34 11.8 1.52 23.48 2.43 35.22 2.24 18.59 5.86 37 10.58 55.13 1.74 6.65 3.72 13.24 5.3 19.93-1.94.08-3.88.17-5.8.25-4.35-2.24-9.52-1.12-14.13-2.49-7.68-.61-15.36-1.46-23.08-1.36-12.3.03-24.65-.42-36.89 1.11-1.61-8.99-4.75-17.62-6.66-26.54-1.8-8.67-4.41-17.19-5.08-26.07-2.69-11.9-3.7-24.06-4.76-36.18.82-4.24-.44-8.48-.34-12.73.09-8.69-.12-17.39.3-26.07 1.21-6.9 1.11-13.97 2.53-20.84.68-2.79 1.15-5.63 1.41-8.5l.88-.4c0-7.43 3.51-14.11 4.93-21.26 2.56-6.42 4.64-13.03 7.57-19.31 14.4-32.14 38.89-59.29 68.32-78.43z" fill="#f16d3c" stroke="#f16d3c"/><path d="M221.66 80.212c41.26-4 84.12-.27 122.37 16.56 14.89 6.43 28.83 15.02 41.45 25.19-2.93 6.28-5.01 12.89-7.57 19.31-1.42 7.15-4.93 13.83-4.93 21.26l-.88.4c-.26 2.87-.73 5.71-1.41 8.5-1.42 6.87-1.32 13.94-2.53 20.84-.42 8.68-.21 17.38-.3 26.07-.1 4.25 1.16 8.49.34 12.73-1.32-3.14.16-6.74-1.42-9.8-12.55-29.35-29.1-57.62-52.33-79.83-21.61-21.96-49.2-37.8-78.81-46.14-16.3-4.47-33.17-6.58-50.04-7.19-1.52-.11-3-.42-4.47-.77 13.23-3.69 26.91-5.6 40.53-7.13z" fill="#52c061" stroke="#52c061"/><path d="M745.71 81.292c15.06 7.89 26.59 21.17 35.59 35.35 15.2 24.72 23.07 53.28 26.91 81.85-8.17 1.81-16.16 4.29-24.06 7.01-2.09-27.59-5.99-55.25-14.31-81.72-5.02-15.59-12.1-31.02-24.13-42.49z" fill="#fef5f0" stroke="#fef5f0"/><path d="M101.18 120.932c24.6-15.1 51.49-26.41 79.4-33.73l.55.14c1.47.35 2.95.66 4.47.77 16.87.61 33.74 2.72 50.04 7.19 29.61 8.34 57.2 24.18 78.81 46.14 23.23 22.21 39.78 50.48 52.33 79.83 1.58 3.06.1 6.66 1.42 9.8 1.06 12.12 2.07 24.28 4.76 36.18.67 8.88 3.28 17.4 5.08 26.07 1.91 8.92 5.05 17.55 6.66 26.54-.35.12-1.05.36-1.41.48-19.96 1.71-39.76 5.93-58.67 12.61-6.36 1.5-12.2 4.45-18.17 6.98-6.57 2.04-12.86 4.96-18.71 8.54-5.37 4.42-11.69 7.41-17.27 11.53-4.25 3.2-9.34 5.27-12.97 9.29-6.34 6.67-13.28 12.78-19.15 19.88-5.23 3.94-7.76 10.16-11.98 15.01-8.07 8.78-13.32 19.64-18.43 30.29-6.59 13.08-11.03 27.12-14.71 41.25-2.36 6.78-2.02 14.12-4.25 20.93-1.28 3.63-1.47 7.5-1.94 11.29-3.54 20.56-4.1 41.49-3.84 62.33-.2 11.03.47 22.04 1.09 33.04 1.35 6.29.46 12.82 1.99 19.08.93 3.57.78 7.28 1.01 10.94-16.46-11.82-31.61-25.41-46.15-39.51-55.43-54.13-96.54-122.14-121.81-195.21-14.68-41.91-23.15-86.93-17.54-131.33 3.75-29.48 14.2-58.21 31.13-82.69 17.59-26.02 41.64-47.22 68.26-63.66m-60.66 109.08c-11.07 17.7-15.78 38.61-17.13 59.24-1.99 36.9 6.72 73.41 18.83 108.02 3.97-1.51 7.22-4.39 10.85-6.53 3.68-2.79 8.06-4.69 11.25-8.09-4.43-11.18-7.49-22.85-10.83-34.39-6.4-23.56-11.43-47.58-13.45-71.93-1.18-18.56-.8-38.01 7.46-55.09-2.88 2.43-4.94 5.64-6.98 8.77z" fill="#75cb82" stroke="#75cb82"/><path d="M808.21 198.492c7.09-1.54 14.29-2.57 21.49-3.46 25.26-1.92 50.81.71 75.11 7.9 35.15 10.3 67.98 28.02 96.72 50.63-.46.12-1.38.34-1.85.46-6.87-2.19-13.38-5.41-20.22-7.7-19.25-6.46-39.51-10.07-59.84-9.9-30.28.07-60.31 8.23-87 22.39-11.89 6.28-23.35 13.4-34.07 21.52-8.44 6.85-17.29 13.26-24.74 21.22-38.16 36.3-66.84 81.47-88.81 129.08-10.82 24.21-20.23 49.09-27.57 74.57-3.22 9.87-5.36 20.04-8.48 29.93.01-8.39.83-16.93-.8-25.21-2.54-35.11-13.34-70.13-33.98-98.91 2.89-10.51 8.3-20.06 11.98-30.28 4.77-10.87 9.85-21.64 15.79-31.93 8.4-16.51 18.33-32.19 28.66-47.55 7.17-9.73 13.71-20.1 22.84-28.17 3.69-6.39 9.29-11.28 14.33-16.59 21.75-21.76 47.38-40.23 76.38-50.99 7.9-2.72 15.89-5.2 24.06-7.01z" fill="#ef3888" stroke="#ef3888"/><path d="M446.29 212.072c3.78 4.9 4.56 11.2 6.66 16.87 1.93 5.1 2.55 10.55 4.03 15.78 2.63 8.6 3.67 17.56 5.96 26.24.54 6.49 2.64 12.76 2.67 19.31 1.07 10.62 2.13 21.25 2.6 31.92-1.21.05-2.42.11-3.61.16-1.58-6.69-3.56-13.28-5.3-19.93-4.72-18.13-8.34-36.54-10.58-55.13-.91-11.74-2.77-23.42-2.43-35.22z" fill="#e58658" stroke="#e58658"/><path d="M40.52 230.012c2.04-3.13 4.1-6.34 6.98-8.77-8.26 17.08-8.64 36.53-7.46 55.09 2.02 24.35 7.05 48.37 13.45 71.93 3.34 11.54 6.4 23.21 10.83 34.39-3.19 3.4-7.57 5.3-11.25 8.09-3.63 2.14-6.88 5.02-10.85 6.53-12.11-34.61-20.82-71.12-18.83-108.02 1.35-20.63 6.06-41.54 17.13-59.24z" fill="#f1fbf3" stroke="#f1fbf3"/><path d="M832.61 258.812c26.69-14.16 56.72-22.32 87-22.39 20.33-.17 40.59 3.44 59.84 9.9 6.84 2.29 13.35 5.51 20.22 7.7.47-.12 1.39-.34 1.85-.46 27.72 22.37 51.24 49.99 68.85 80.95 10.5 18.71 18.73 38.79 23.34 59.77 4.75 20.63 5.73 42.08 3.36 63.1-2.72 22.53-9.46 44.54-19.41 64.92-7.26-2.52-14.57-4.96-21.52-8.25 8.52-18.69 14.68-38.98 14.28-59.7.05-7.84-.87-15.74-3.37-23.18.9 16.84-5.39 32.97-12.83 47.76-5.41 10.39-11.55 20.4-18.22 30.03-3.66-1.92-7.82-2.29-11.77-3.22-13.36-2.99-27-4.73-40.67-5.46-9.2.16-18.38-1.66-27.57-.49-14.18.92-28.4 2-42.38 4.67-8.3 2-16.82 3.05-24.88 5.98-10.98 2.64-21.29 7.29-31.79 11.33-16.65 7.69-32.57 17.27-46.38 29.4-14.62 11.43-26.17 26.24-36.53 41.49-3.9 5.87-7.16 12.13-10.86 18.12-22.71-8.84-46.44-15.39-70.63-18.35 4.41-2.13 7.14-6.28 10.45-9.69 14.73-15.08 28.82-30.9 40.65-48.38 11.36-14.45 20.3-30.57 29.68-46.33 11.11-20.33 20.43-41.57 29-63.08 4.68-14.14 9.96-28.1 13.36-42.62.74-3.75 2.39-7.24 3.09-10.99.69-3.62.85-7.36 2.19-10.83 2.26-5.79 2.25-12.12 3.81-18.1 1.59-6.24 1.76-12.71 3.13-18.99.73-3.78.49-7.67 1.3-11.43 2.82-12.37 1.86-25.14 3.34-37.66-.22-5.18.87-10.38.07-15.52z" fill="#f262a0" stroke="#f262a0"/><path d="M798.61 280.332c10.72-8.12 22.18-15.24 34.07-21.52.8 5.14-.29 10.34-.07 15.52-1.48 12.52-.52 25.29-3.34 37.66-.81 3.76-.57 7.65-1.3 11.43-1.37 6.28-1.54 12.75-3.13 18.99-1.56 5.98-1.55 12.31-3.81 18.1-1.34 3.47-1.5 7.21-2.19 10.83-.7 3.75-2.35 7.24-3.09 10.99-3.4 14.52-8.68 28.48-13.36 42.62-8.57 21.51-17.89 42.75-29 63.08-9.38 15.76-18.32 31.88-29.68 46.33-11.83 17.48-25.92 33.3-40.65 48.38-3.31 3.41-6.04 7.56-10.45 9.69-3.83-.17-7.58-.95-11.35-1.5-12.5-.84-25.04-.01-37.54-.56.95-11.75 3.25-23.37 4.15-35.13.77-15.09.4-30.21.34-45.32 1.63 8.28.81 16.82.8 25.21 3.12-9.89 5.26-20.06 8.48-29.93 7.34-25.48 16.75-50.36 27.57-74.57 21.97-47.61 50.65-92.78 88.81-129.08 7.45-7.96 16.3-14.37 24.74-21.22z" fill="#f25693" stroke="#f25693"/><path d="M384.7 319.862c12.24-1.53 24.59-1.08 36.89-1.11 7.72-.1 15.4.75 23.08 1.36 4.61 1.37 9.78.25 14.13 2.49-4.38-.12-8.82-1.08-13.14.04 5.05 2 10.2 3.85 15 6.42-.74.16-2.22.47-2.96.63 3.59 2.46 7.7 3.97 11.52 6.03 1.39.82 2.94 2.01 2.86 3.81.11 8.5 4.06 16.47 9.19 23.06 3.06 4.11.94 9.95 3.92 14.08 3.06 4.11 3.59 9.34 4.86 14.16 1.07.31 2.15.62 3.23.94.65 3.29 1.11 6.63 2.07 9.86 1.07 3.79 4.38 6.3 6.01 9.8 1.9 4.37 5.66 7.75 6.69 12.53 1 5.89 8.24 8.3 8.06 14.65 1.53.8 3.47 1.25 4.41 2.87 1.56 2.57.7 5.94 2.35 8.5 2.07 3.53 4.79 6.61 7.08 9.99 1.87 2.71 2.04 6.28 4.26 8.79 2.44 3.25 6.13 5.54 7.78 9.38 2.34 5.22 6.42 9.36 9.7 13.99 3.17 2.91 4.98 6.81 6.52 10.76 1.32.26 2.64.53 3.98.81 1.03 2.76 2.17 5.47 3.5 8.1.57-1.82 1.05-3.67 1.49-5.53 1.54 8.59 1.46 17.34 1.14 26.02-.31 4.35-1.16 8.71-.58 13.07.09 1.1.67 1.91 1.73 2.45-.46 5.3-.67 10.63-1.65 15.87-5.85-2.25-10.86-6.09-15.95-9.65-7.83-5.85-16.11-11.1-23.44-17.59-2.82-2.55-5.92-4.74-8.97-6.98-7.37-6.3-14.22-13.17-21.58-19.48-6.9-6.1-12.28-13.64-19.01-19.89-7.85-9.05-15.36-18.41-23.04-27.62-1.58-1.91-4.02-3.45-4.23-6.15-.36-3.35-2.91-5.75-4.37-8.63-1.77-3.5-5.29-5.82-6.41-9.68-.99-3.4-4.39-5.14-5.85-8.25-3.49-6.37-7.72-12.31-11.05-18.77-1.78-3.43-4.87-5.96-6.56-9.44-1.44-2.52-1.81-5.45-2.98-8.07-4.5-3.9-5.28-10.11-7.53-15.32-3.02-5.84-6.52-11.6-8.03-18.08-2.19-5.73-3.95-11.63-6.57-17.19-2.02-6.26-3.8-12.63-5-19.1-.82-.05-1.63-.09-2.44-.13-.51-1.11-1.02-2.22-1.52-3.32.36-.12 1.06-.36 1.41-.48z" fill="#7daae1" stroke="#7daae1"/><path d="M324.62 332.952c18.91-6.68 38.71-10.9 58.67-12.61.5 1.1 1.01 2.21 1.52 3.32.81.04 1.62.08 2.44.13 1.2 6.47 2.98 12.84 5 19.1 2.62 5.56 4.38 11.46 6.57 17.19 1.51 6.48 5.01 12.24 8.03 18.08 2.25 5.21 3.03 11.42 7.53 15.32 1.17 2.62 1.54 5.55 2.98 8.07 1.69 3.48 4.78 6.01 6.56 9.44 3.33 6.46 7.56 12.4 11.05 18.77 1.46 3.11 4.86 4.85 5.85 8.25 1.12 3.86 4.64 6.18 6.41 9.68 1.46 2.88 4.01 5.28 4.37 8.63.21 2.7 2.65 4.24 4.23 6.15-3.97 8.52-4.76 18.06-8.4 26.7-7.49 21.03-15.76 41.84-26.53 61.42-7.22 14.88-16.17 28.83-25.58 42.41-5.56 7.47-10.38 15.5-16.48 22.56-3.65 4.67-7.54 9.13-11.31 13.7-4.22 5.41-9.47 9.87-14.03 14.98-10.56 12.13-22.8 22.63-35.25 32.74-2.03 1.68-4.48 3.05-5.79 5.41 3.56 6.48 9.18 11.7 12.93 18.12 3.23 3.86 6.3 7.85 8.85 12.21 3.38 3.71 5.44 8.36 8.83 12.05.2 1.61-2.17 1.34-3.17 1.92-7.14 1.43-14.2 3.27-21.42 4.24-4.75.64-9.13 2.79-13.88 3.45-7.91 1.28-15.9 2.25-23.61 4.57.61 18.04 4.38 35.95 11.16 52.69 6.29 16.53 14.57 32.25 23.91 47.26 6.03 8.95 10.85 18.73 17.91 26.98 11.59 16.65 23.82 32.85 36.48 48.7-.38.33-1.15.99-1.53 1.32-5.85-6.25-10.99-13.09-15.79-20.15-4.34-4.76-7.39-10.46-11.5-15.4-19.38-25.95-36.95-53.49-49.69-83.34-6.29-16.94-12.11-34.47-12.46-52.7.15-3.49-2.58-6.46-1.85-9.98 1.44-10.44 2.74-20.9 3.54-31.4.41-4.89 1.73-9.72 1.46-14.64-3-2.8-7.19-3.65-10.88-5.15-12.54-4.96-24.25-11.68-36.22-17.82-8.78-5.51-18.16-10.13-26.29-16.6-7.65-4.35-14.34-10.15-21.91-14.61l-.04-.78c-.23-3.66-.08-7.37-1.01-10.94-1.53-6.26-.64-12.79-1.99-19.08-.62-11-1.29-22.01-1.09-33.04-.26-20.84.3-41.77 3.84-62.33.47-3.79.66-7.66 1.94-11.29 2.23-6.81 1.89-14.15 4.25-20.93 3.68-14.13 8.12-28.17 14.71-41.25 5.11-10.65 10.36-21.51 18.43-30.29 4.22-4.85 6.75-11.07 11.98-15.01 5.87-7.1 12.81-13.21 19.15-19.88 3.63-4.02 8.72-6.09 12.97-9.29 5.58-4.12 11.9-7.11 17.27-11.53 5.85-3.58 12.14-6.5 18.71-8.54 5.97-2.53 11.81-5.48 18.17-6.98m-58.35 69.08c-13.37 8.72-24 21.14-32.18 34.73-10.71 17.69-17.46 37.5-21.96 57.6-4.89 22.88-6.93 46.31-7 69.68 8.44-1.76 16.82-3.85 25.21-5.86.44-7.96.76-15.93 1-23.9 2.35-31.01 5.8-62.26 15.23-92.03 5.25-15.7 11.98-31.89 24.9-42.85-1.8.73-3.59 1.53-5.2 2.63z" fill="#73b2e7" stroke="#73b2e7"/><path d="M445.66 322.642c4.32-1.12 8.76-.16 13.14-.04 19.77 2.8 39.11 8.36 57.69 15.62 15.09 5.9 29.76 12.99 43.38 21.82 20.99 13.49 40.17 30.27 54.31 50.97 20.64 28.78 31.44 63.8 33.98 98.91.06 15.11.43 30.23-.34 45.32-.9 11.76-3.2 23.38-4.15 35.13-.2.33-.6 1-.8 1.34-.76.14-1.51.3-2.24.48-4.64.8-9.38.32-14.03.92-21.41 2.39-42.7 6.76-62.9 14.35-.8.02-2.41.08-3.21.1 2.73-14.56 6.19-29.06 7.33-43.88.98-5.24 1.19-10.57 1.65-15.87.61-11.16.53-22.35.49-33.53.28-18.77-2.88-37.4-6.8-55.69-3.66-12.55-6.85-25.34-12.6-37.14-4.67-11.89-11.56-22.72-18.74-33.22-3.64-5.94-8.59-10.88-12.86-16.34-8.17-10.23-18.82-18-29.05-26.02-9.16-6.56-19.26-11.64-29.25-16.81-4.8-2.57-9.95-4.42-15-6.42z" fill="#5ea2ed" stroke="#5ea2ed"/><path d="M457.7 329.692c.74-.16 2.22-.47 2.96-.63 9.99 5.17 20.09 10.25 29.25 16.81 10.23 8.02 20.88 15.79 29.05 26.02 4.27 5.46 9.22 10.4 12.86 16.34 7.18 10.5 14.07 21.33 18.74 33.22 5.75 11.8 8.94 24.59 12.6 37.14 3.92 18.29 7.08 36.92 6.8 55.69.04 11.18.12 22.37-.49 33.53-1.06-.54-1.64-1.35-1.73-2.45-.58-4.36.27-8.72.58-13.07.32-8.68.4-17.43-1.14-26.02-.44 1.86-.92 3.71-1.49 5.53-1.33-2.63-2.47-5.34-3.5-8.1-1.34-.28-2.66-.55-3.98-.81-1.54-3.95-3.35-7.85-6.52-10.76-3.28-4.63-7.36-8.77-9.7-13.99-1.65-3.84-5.34-6.13-7.78-9.38-2.22-2.51-2.39-6.08-4.26-8.79-2.29-3.38-5.01-6.46-7.08-9.99-1.65-2.56-.79-5.93-2.35-8.5-.94-1.62-2.88-2.07-4.41-2.87.18-6.35-7.06-8.76-8.06-14.65-1.03-4.78-4.79-8.16-6.69-12.53-1.63-3.5-4.94-6.01-6.01-9.8-.96-3.23-1.42-6.57-2.07-9.86-1.08-.32-2.16-.63-3.23-.94-1.27-4.82-1.8-10.05-4.86-14.16-2.98-4.13-.86-9.97-3.92-14.08-5.13-6.59-9.08-14.56-9.19-23.06.08-1.8-1.47-2.99-2.86-3.81-3.82-2.06-7.93-3.57-11.52-6.03z" fill="#7faee6" stroke="#7faee6"/><path d="M266.27 402.032c1.61-1.1 3.4-1.9 5.2-2.63-12.92 10.96-19.65 27.15-24.9 42.85-9.43 29.77-12.88 61.02-15.23 92.03-.24 7.97-.56 15.94-1 23.9-8.39 2.01-16.77 4.1-25.21 5.86.07-23.37 2.11-46.8 7-69.68 4.5-20.1 11.25-39.91 21.96-57.6 8.18-13.59 18.81-26.01 32.18-34.73z" fill="#f3f8fe" stroke="#f3f8fe"/><path d="M1067.11 431.172c2.5 7.44 3.42 15.34 3.37 23.18.4 20.72-5.76 41.01-14.28 59.7-12.57 26.78-30.67 50.58-50.74 72.15-2.73 2.79-5.17 5.9-8.41 8.14-4.37-7.42-9.15-14.59-13.43-22.06 19.05-19.73 36.76-40.8 52.44-63.32 6.67-9.63 12.81-19.64 18.22-30.03 7.44-14.79 13.73-30.92 12.83-47.76z" fill="#fef0f7" stroke="#fef0f7"/><path d="M447.43 489.172c3.64-8.64 4.43-18.18 8.4-26.7 7.68 9.21 15.19 18.57 23.04 27.62 6.73 6.25 12.11 13.79 19.01 19.89 7.36 6.31 14.21 13.18 21.58 19.48 3.05 2.24 6.15 4.43 8.97 6.98 7.33 6.49 15.61 11.74 23.44 17.59 5.09 3.56 10.1 7.4 15.95 9.65-1.14 14.82-4.6 29.32-7.33 43.88.8-.02 2.41-.08 3.21-.1-4.48 1.77-9.11 3.2-13.4 5.4-20.25 8.73-38.97 20.98-55.18 35.92-28.21 26.26-47.26 61.48-56.74 98.64-.26-.24-.79-.72-1.05-.96-2.55 9.15-4.19 18.51-6.19 27.77-.08 5.12-2.37 9.91-2.11 15.05.32 6.43-2.05 12.6-1.94 19.02-.07 16.3-.63 32.6-.02 48.89-2.54 4.5-6.85 7.59-9.86 11.74-9 9.66-18.54 18.81-27.82 28.2-5.98 6.17-12.47 11.8-18.94 17.45-12.66-15.85-24.89-32.05-36.48-48.7-7.06-8.25-11.88-18.03-17.91-26.98-9.34-15.01-17.62-30.73-23.91-47.26-6.78-16.74-10.55-34.65-11.16-52.69 7.71-2.32 15.7-3.29 23.61-4.57 4.75-.66 9.13-2.81 13.88-3.45 7.22-.97 14.28-2.81 21.42-4.24 1-.58 3.37-.31 3.17-1.92-3.39-3.69-5.45-8.34-8.83-12.05-2.55-4.36-5.62-8.35-8.85-12.21-3.75-6.42-9.37-11.64-12.93-18.12 1.31-2.36 3.76-3.73 5.79-5.41 12.45-10.11 24.69-20.61 35.25-32.74 4.56-5.11 9.81-9.57 14.03-14.98 3.77-4.57 7.66-9.03 11.31-13.7 6.1-7.06 10.92-15.09 16.48-22.56 9.41-13.58 18.36-27.53 25.58-42.41 10.77-19.58 19.04-40.39 26.53-61.42z" fill="#7fb7f2" stroke="#7fb7f2"/><path d="M187.33 634.112c7.57 4.46 14.26 10.26 21.91 14.61 8.13 6.47 17.51 11.09 26.29 16.6 11.97 6.14 23.68 12.86 36.22 17.82 3.69 1.5 7.88 2.35 10.88 5.15.27 4.92-1.05 9.75-1.46 14.64-.8 10.5-2.1 20.96-3.54 31.4-.73 3.52 2 6.49 1.85 9.98.35 18.23 6.17 35.76 12.46 52.7 12.74 29.85 30.31 57.39 49.69 83.34 4.11 4.94 7.16 10.64 11.5 15.4 4.8 7.06 9.94 13.9 15.79 20.15-1.92 1.65-3.7 3.46-5.44 5.31.81.08 2.44.24 3.26.33-2 .63-3.92 1.45-5.82 2.3 5.2 17.15 10.17 34.38 14.91 51.66-3.52-.38-7.01-.89-10.49-1.52l2.63-.68c-6.37-16.12-13.25-32.05-20.19-47.94.16 8.73 2.67 17.23 4.13 25.82 1.24 7.13 2.86 14.2 3.66 21.4-2.96-.43-5.91-.88-8.84-1.45-1.31-.37-2.61-.78-3.89-1.15-.73-15.89-.89-31.8-1.67-47.68-6.08 15-10.9 30.46-16.62 45.59-3.96-.61-7.93-1.12-11.91-1.48 5.23-13.96 12.7-27.2 22.88-38.16 1.17-1.5 3.37-2.98 2.12-5.1-7.14 6.46-11.88 14.96-18.02 22.24.52-2.81 2.06-5.25 3.32-7.76 3.15-6.16 6.11-12.42 9.41-18.49-18.68-16.16-35.56-34.36-50.58-53.95-48.89-63.02-80.24-138.99-92.44-217.67-.79-4.46-1.22-8.96-2-13.41z" fill="#7fb7f2" stroke="#7fb7f2"/><path d="M956.01 499.792c9.19-1.17 18.37.65 27.57.49 13.67.73 27.31 2.47 40.67 5.46 3.95.93 8.11 1.3 11.77 3.22-15.68 22.52-33.39 43.59-52.44 63.32 4.28 7.47 9.06 14.64 13.43 22.06 3.24-2.24 5.68-5.35 8.41-8.14 20.07-21.57 38.17-45.37 50.74-72.15 6.95 3.29 14.26 5.73 21.52 8.25.25.22.75.65 1 .87-.53.23-1.58.71-2.11.94-3.2 7.06-6.76 13.99-11.26 20.32-2.15 8.08-8.75 13.73-12.81 20.8-11.77 16.88-26.21 31.64-40.4 46.48-3.84 4.58-8.88 7.93-12.75 12.48-5.41 5.28-11.55 9.76-16.92 15.09-9.06 7.96-18.71 15.22-28.26 22.55-3.67 3.78-8.45 6.08-12.68 9.12-9.15 6.29-18.26 12.68-28 18.03-6.21 4.35-13.08 7.58-19.62 11.38-6 3.41-12.44 6.01-18.12 9.96-3.63-5.64-6.19-11.88-9.89-17.47-5.69-8.74-11.44-17.53-18.66-25.1-1.2-1.32-2.7-2.29-4.19-3.2-13.4-13.76-28.53-25.88-45.16-35.52-2-1.15-3.89-2.43-5.8-3.68 2.13.48 4.26 1.04 6.35 1.73.95-3.42 2.65-6.54 3.85-9.86 3.27-12.82 10.89-24.01 19.23-34.06-3.43.77-6.29 2.89-9 5.02-9.93 7.43-16.85 17.92-24.3 27.66-1.47 1.79-2.1 4.04-2.73 6.23-3.68-1.55-7.17-3.46-10.78-5.14-2.61-3.76-7.64-4.22-11.48-6.15 3.7-5.99 6.96-12.25 10.86-18.12 10.36-15.25 21.91-30.06 36.53-41.49 13.81-12.13 29.73-21.71 46.38-29.4 10.5-4.04 20.81-8.69 31.79-11.33 8.06-2.93 16.58-3.98 24.88-5.98 13.98-2.67 28.2-3.75 42.38-4.67z" fill="#f25292" stroke="#f25292"/><path d="M1076.61 524.112c.53-.23 1.58-.71 2.11-.94 34.57 14.9 66.46 37.67 88.33 68.65 14.61 20.34 24.44 43.89 29.78 68.3 9.66 45.02 4.75 91.82-6.08 136.15-10.81 43.98-27.35 86.67-50.41 125.7-40.49 69.17-101.62 125.94-173.43 161.49-16.41 8.05-33.3 15.34-50.88 20.48.4-2.61 3.07-3.8 4.76-5.5 6.79-5.51 12.91-11.76 19.31-17.7 6.02-4.99 10.7-11.35 16.69-16.39 41.85-42.62 77.65-91.16 106.13-143.67 8.2-16.02 16.55-32.01 23.37-48.69 16.72-39.5 29.02-81.06 34.44-123.67 1.18-11.67 2.87-23.31 2.73-35.05 1.08-33-3.05-66.39-14.25-97.53-8.39-23.21-20.93-45.07-37.74-63.21-2.31-2.48-5.13-4.72-6.12-8.1 4.5-6.33 8.06-13.26 11.26-20.32z" fill="#ff1f1f" stroke="#ff1f1f"/><path d="M1052.51 565.232c4.06-7.07 10.66-12.72 12.81-20.8.99 3.38 3.81 5.62 6.12 8.1 16.81 18.14 29.35 40 37.74 63.21 11.2 31.14 15.33 64.53 14.25 97.53.14 11.74-1.55 23.38-2.73 35.05-5.42 42.61-17.72 84.17-34.44 123.67-6.82 16.68-15.17 32.67-23.37 48.69-28.48 52.51-64.28 101.05-106.13 143.67-5.99 5.04-10.67 11.4-16.69 16.39-6.4 5.94-12.52 12.19-19.31 17.7-1.69 1.7-4.36 2.89-4.76 5.5-.32.17-.97.51-1.29.68.09 4.02 1.66 7.75 2.71 11.58 3.39 11.71 6.65 23.46 10.13 35.15.54 1.78.82 3.61 1.13 5.46-.76-.14-2.27-.43-3.03-.58-1.35-.38-2.68-.82-3.97-1.21-7.41-16.84-14.29-33.92-21.81-50.71 1.42 10.41 3.94 20.64 5.66 31.01.9 6.1 2.95 12.1 2.72 18.34-4.9-.4-9.7-1.6-14.62-1.76.53-.15 1.6-.44 2.13-.59.56-7.68-.73-15.33-.67-23-.01-8.36-.21-16.72-.92-25.04-4.14 10.88-7.9 21.91-11.74 32.9-1.47 4.36-3.33 8.61-4.17 13.17-4.15-.51-8.24-1.54-12.42-1.66 5.49-14.37 13.26-28.07 24.01-39.17 1.12-1.07 1.95-2.54 1.09-4.07-6.74 5.87-11.79 13.39-16.81 20.71-.19-.12-.59-.36-.78-.48l-.36-.21c4.45-7.95 8.49-16.14 12.44-24.35-24.43-20.3-44.73-45.06-63.32-70.69.18-.29.54-.86.72-1.15 1.51-2.52 3.04-5.02 4.74-7.42 3.95-2.11 5.2-6.7 7.45-10.26 10.35-17.89 19.51-36.46 27.14-55.66 13.17-34.23 23.77-69.63 29.06-105.97 1.65-5.48.65-11.28 2.03-16.79 1.76-6.82.69-13.9 1.15-20.84-.08-10.63.13-21.28-.3-31.9-1.12-5.09-1.65-10.26-2.09-15.44-1.9-9.04-3.5-18.17-6.2-27.02-2.71-9.12-6.42-17.89-10.05-26.65 5.68-3.95 12.12-6.55 18.12-9.96 6.54-3.8 13.41-7.03 19.62-11.38 9.74-5.35 18.85-11.74 28-18.03 4.23-3.04 9.01-5.34 12.68-9.12 9.55-7.33 19.2-14.59 28.26-22.55 5.37-5.33 11.51-9.81 16.92-15.09 3.87-4.55 8.91-7.9 12.75-12.48 14.19-14.84 28.63-29.6 40.4-46.48z" fill="#ff4d4d" stroke="#ff4d4d"/><path d="M812.51 588.182c2.71-2.13 5.57-4.25 9-5.02-8.34 10.05-15.96 21.24-19.23 34.06-1.2 3.32-2.9 6.44-3.85 9.86-2.09-.69-4.22-1.25-6.35-1.73-2.21-1.1-4.38-2.26-6.6-3.28.63-2.19 1.26-4.44 2.73-6.23 7.45-9.74 14.37-20.23 24.3-27.66z" fill="#f2609f" stroke="#f2609f"/><path d="M642.87 591.712c.2-.34.6-1.01.8-1.34 12.5.55 25.04-.28 37.54.56 3.77.55 7.52 1.33 11.35 1.5 24.19 2.96 47.92 9.51 70.63 18.35 3.84 1.93 8.87 2.39 11.48 6.15-20.19-8.34-40.92-15.84-62.51-19.57-13.06-3.78-26.77-4.13-40.22-5.47-9.69-.47-19.38-.16-29.07-.18z" fill="#e57673" stroke="#e57673"/><path d="M640.63 592.192c.73-.18 1.48-.34 2.24-.48 9.69.02 19.38-.29 29.07.18 13.45 1.34 27.16 1.69 40.22 5.47-5.37.74-10.52-1.66-15.88-1.08 1.33 2.15 3.96 2.6 6.12 3.55 5.26 1.97 10.41 4.3 14.98 7.63 4.36 3.31 9.88 4.59 14.16 8.03 3.69 2.92 7.98 5.1 11.26 8.53 2.75 2.98 6.58 4.9 8.56 8.58 4.47 7.11 11.57 11.91 16.42 18.7 3.73 3.94 6.31 8.78 10.16 12.63 1.85 4.58 5.17 8.28 7.54 12.59 3.6 5.75 6.48 11.94 8.95 18.25 1.57 3.4 3.68 6.56 4.75 10.19 1.45 4.81 4.22 9.25 4.57 14.37.21 2.62.84 5.2 1.95 7.6-.2 4.07 0 8.16-.35 12.23-1.03 1.02-2.58.36-3.81.42-4.11-.49-8.26-.52-12.37-.05-.82 1.17-.87 3.44-2.67 3.52-4.84.5-9.73-.02-14.57.44-.29 1.71-.4 3.49-1 5.14-4.44 1.68-9.41-.28-13.9 1.19-6.36 2.74-13.39.8-20.06 1.57-.13 2.77-.36 5.54-.61 8.3-.41-2.16-.85-4.31-1.18-6.46-3.27-.75-6.52.38-9.75.71-6.17.66-12.35 1.25-18.52 1.79-.8.05-1.59.12-2.37.21-13.96.51-27.98.7-41.94.06-2.22.19-6.15-1.82-6.82 1.41-2.02 7.14-4.86 14.02-6.82 21.18-2.22 8.12-5.43 15.91-7.94 23.94-.47-1.25-.93-2.49-1.39-3.71-.21.94-.39 1.9-.57 2.86-.85.23-1.67.48-2.48.73-8.25-6.08-17.01-11.48-24.79-18.17-8.24-6.78-17.76-12.01-25.23-19.69 10.4-6.98 21.96-12.08 32.68-18.55 4.42-2.82 9.61-4.26 13.66-7.67-5.21-10.12-9.96-20.49-14.33-31.01-2.43-5.35-3.75-11.16-6.54-16.34 2.6-6.98 6.45-13.52 8.21-20.82 1.62-7.27 6.27-13.5 7.58-20.87.74-3.3 2.48-6.29 3.13-9.62.59-2.98.81-6.08 2.09-8.87 2.17-4.96 2.95-10.37 4.59-15.5 1.6-5.23 2.08-10.69 2.32-16.12-.11-1.57 1.71-2.08 2.63-3.02-.67-1.33-1.31-2.65-1.95-3.97z" fill="#fce45c" stroke="#fce45c"/><path d="M563.7 607.462c20.2-7.59 41.49-11.96 62.9-14.35 4.65-.6 9.39-.12 14.03-.92.64 1.32 1.28 2.64 1.95 3.97-.92.94-2.74 1.45-2.63 3.02-.24 5.43-.72 10.89-2.32 16.12-1.64 5.13-2.42 10.54-4.59 15.5-1.28 2.79-1.5 5.89-2.09 8.87-.65 3.33-2.39 6.32-3.13 9.62-1.31 7.37-5.96 13.6-7.58 20.87-1.76 7.3-5.61 13.84-8.21 20.82-1.85 6.78-5.48 12.89-8.47 19.21-2.92 6.62-6.81 12.73-9.77 19.33-5.3 8.42-10.01 17.2-15.33 25.61-5.16 7.18-9.5 14.95-15.23 21.73-13.27 17.86-27.64 34.93-43.86 50.19-7.39 7.61-15.25 14.77-23.62 21.3-17.75 15.37-37.36 28.41-57.29 40.77-2.02 1.22-4.13 2.3-6.27 3.3-.85-2.64-1.91-5.27-1.94-8.08-.24-8.79.29-17.76-1.85-26.36-.02-.27-.05-.79-.06-1.05 2.34-1.87 2.99-4.92 4.63-7.3.3.3.88.9 1.18 1.19 1.09-4.39 4.54-7.36 7.57-10.43 1.48-1.16 1.12-3.11 1.23-4.73 1.09.55 2.21 1.08 3.32 1.64-.22-1.93-.44-3.86-.64-5.78 1.46 1.61 2.82 3.3 4.18 5 2.4.51 4.82-.11 7.11-.86 5.99-1.97 12.32-2.58 18.31-4.59.02-5.27-.17-10.55.33-15.79.75-7.29.17-14.66 1.49-21.89.2-8.16 1.34-16.25 2.71-24.29.36 5.42-.31 10.83-.14 16.24-.06 2.35 1.71 4.1 2.96 5.91-.15-2.38-.41-4.73-.75-7.07.33-.16 1-.49 1.33-.66 1.23-3.08 2.49-6.43 5.39-8.33 2.93-1.57 2.87-5.2 4.05-7.91 1.12-2.66 2.05-5.67 4.53-7.39 3.36-2.37 4.65-6.5 6.02-10.18 1.61-5.23 5.87-9.01 7.88-14.05 1.54-4.14 5.16-6.91 7.27-10.69 1.14-1.99 1.11-4.36 1.6-6.54.18-2.55 3.02-3.77 3.5-6.18.43-3.56 2.86-6.37 3.6-9.84 1.25-5.35 5.86-9.1 7.15-14.45.92-3.73 1.72-7.78 5.1-10.13.15-4.74 2-9.15 2.87-13.76 2.31-1.82 4.17-4.23 5.23-6.98.63-3.82-.81-8.5 3.09-10.97-.12-4.72 2.73-8.86 2.35-13.62 3.17-2.37 2.46-6.57 4.08-9.8 1.19-2.39.72-5.11.66-7.67a40.15 40.15 0 01-7.23-2.17c4.29-2.2 8.92-3.63 13.4-5.4z" fill="#eeea65" stroke="#eeea65"/><path d="M696.28 596.282c5.36-.58 10.51 1.82 15.88 1.08 21.59 3.73 42.32 11.23 62.51 19.57 3.61 1.68 7.1 3.59 10.78 5.14 2.22 1.02 4.39 2.18 6.6 3.28 1.91 1.25 3.8 2.53 5.8 3.68 16.63 9.64 31.76 21.76 45.16 35.52 9.55 11.08 18.75 22.58 25.73 35.51 21.59 38.73 27.4 84.51 23.35 128.19-3.61 41.12-14.32 81.38-28.93 119.9-7.77 20.33-17.04 40.1-27.87 58.98-2.5 4.62-5.5 8.96-7.73 13.72-1.7 2.4-3.23 4.9-4.74 7.42-3.78-2.32-4.89-6.75-6.7-10.48-.91-2.73-4.59-2.59-5.83-5-1.66-3.07-2.7-6.53-5.16-9.09-2.05-2.07-1.84-5.23-3.18-7.64-1.09-1-2.31-1.81-3.37-2.8-1.87-3.24-1.6-7.71-4.79-10.16-3.68-3.09-5.07-7.87-6.93-12.11-1.16-2.49-1.41-5.23-1.67-7.9-1.89 1.29-3.43 3-4.91 4.73-1.32-3.66 2.02-7.17.7-10.84-.17-.4-.52-1.2-.69-1.61 2.7-4.92 1.98-11.26 6.2-15.33 2.69-5.43 2.76-11.78 5.75-17.08 1.84-3.46 1.37-7.48 2.1-11.21 1.06-4.03 3.99-7.34 4.61-11.51.91-4.19.5-8.86 3.08-12.51 2.23-2.93 1.75-6.8 3-10.11 1.22-3.37.92-6.97 1.08-10.48.11-3.82 1.56-7.4 2.29-11.11.82-4.25 1.49-8.52 2.31-12.75 1.66-7.32 1.05-14.91 2.71-22.23 1.05-12.19.38-24.47.59-36.69.23-5.71-1.02-11.32-1.52-16.98-.73-4.71-.06-9.58-1.42-14.19-.96-3.09-.92-6.38-1.95-9.42-2.28-5.37-.62-11.61-3.42-16.84-1.11-2.4-1.74-4.98-1.95-7.6-.35-5.12-3.12-9.56-4.57-14.37-1.07-3.63-3.18-6.79-4.75-10.19-2.47-6.31-5.35-12.5-8.95-18.25-2.37-4.31-5.69-8.01-7.54-12.59-3.85-3.85-6.43-8.69-10.16-12.63-4.85-6.79-11.95-11.59-16.42-18.7-1.98-3.68-5.81-5.6-8.56-8.58-3.28-3.43-7.57-5.61-11.26-8.53-4.28-3.44-9.8-4.72-14.16-8.03-4.57-3.33-9.72-5.66-14.98-7.63-2.16-.95-4.79-1.4-6.12-3.55z" fill="#fced3a" stroke="#fced3a"/><path d="M495.12 648.782c16.21-14.94 34.93-27.19 55.18-35.92 2.33.94 4.75 1.68 7.23 2.17.06 2.56.53 5.28-.66 7.67-1.62 3.23-.91 7.43-4.08 9.8.38 4.76-2.47 8.9-2.35 13.62-3.9 2.47-2.46 7.15-3.09 10.97-1.06 2.75-2.92 5.16-5.23 6.98-.87 4.61-2.72 9.02-2.87 13.76-3.38 2.35-4.18 6.4-5.1 10.13-1.29 5.35-5.9 9.1-7.15 14.45-.74 3.47-3.17 6.28-3.6 9.84-.48 2.41-3.32 3.63-3.5 6.18-.49 2.18-.46 4.55-1.6 6.54-2.11 3.78-5.73 6.55-7.27 10.69-2.01 5.04-6.27 8.82-7.88 14.05-1.37 3.68-2.66 7.81-6.02 10.18-2.48 1.72-3.41 4.73-4.53 7.39-1.18 2.71-1.12 6.34-4.05 7.91-2.9 1.9-4.16 5.25-5.39 8.33-.33.17-1 .5-1.33.66.34 2.34.6 4.69.75 7.07-1.25-1.81-3.02-3.56-2.96-5.91-.17-5.41.5-10.82.14-16.24.37-8.5 2.69-16.72 3.88-25.11 3.17-12.85 5.47-26.09 11.02-38.2 1.86-6.4 5.3-12.13 8.36-17.99 2.91-5.7 8.21-9.6 11.44-15.07-11.2 6.49-20.89 15.51-28.31 26.1-18.58 25.09-27.81 55.75-32.7 86.23-1.59 8.68-2 17.51-3.14 26.25-.34 8.4-.39 16.81-.5 25.21-1.36-1.7-2.72-3.39-4.18-5 .2 1.92.42 3.85.64 5.78-1.11-.56-2.23-1.09-3.32-1.64-.11 1.62.25 3.57-1.23 4.73-3.03 3.07-6.48 6.04-7.57 10.43-.3-.29-.88-.89-1.18-1.19-1.64 2.38-2.29 5.43-4.63 7.3-.53-6.19-.25-12.41-.34-18.61.11-9.35-.31-18.74.96-28.03.65-21.25 4.63-42.21 9.42-62.87 9.48-37.16 28.53-72.38 56.74-98.64z" fill="#f3ed65" stroke="#f3ed65"/><path d="M843.01 664.552c1.49.91 2.99 1.88 4.19 3.2 7.22 7.57 12.97 16.36 18.66 25.1 3.7 5.59 6.26 11.83 9.89 17.47 3.63 8.76 7.34 17.53 10.05 26.65 2.7 8.85 4.3 17.98 6.2 27.02.44 5.18.97 10.35 2.09 15.44.43 10.62.22 21.27.3 31.9-.46 6.94.61 14.02-1.15 20.84-1.38 5.51-.38 11.31-2.03 16.79-5.29 36.34-15.89 71.74-29.06 105.97-7.63 19.2-16.79 37.77-27.14 55.66-2.25 3.56-3.5 8.15-7.45 10.26 2.23-4.76 5.23-9.1 7.73-13.72 10.83-18.88 20.1-38.65 27.87-58.98 14.61-38.52 25.32-78.78 28.93-119.9 4.05-43.68-1.76-89.46-23.35-128.19-6.98-12.93-16.18-24.43-25.73-35.51z" fill="#ea6b3e" stroke="#ea6b3e"/><path d="M514.46 672.732c-3.23 5.47-8.53 9.37-11.44 15.07-3.06 5.86-6.5 11.59-8.36 17.99-5.55 12.11-7.85 25.35-11.02 38.2-1.19 8.39-3.51 16.61-3.88 25.11-1.37 8.04-2.51 16.13-2.71 24.29-1.32 7.23-.74 14.6-1.49 21.89-.5 5.24-.31 10.52-.33 15.79-5.99 2.01-12.32 2.62-18.31 4.59-2.29.75-4.71 1.37-7.11.86.11-8.4.16-16.81.5-25.21 1.14-8.74 1.55-17.57 3.14-26.25 4.89-30.48 14.12-61.14 32.7-86.23 7.42-10.59 17.11-19.61 28.31-26.1z" fill="#fefef2" stroke="#fefef2"/><path d="M612.03 690.982c2.79 5.18 4.11 10.99 6.54 16.34 4.37 10.52 9.12 20.89 14.33 31.01-4.05 3.41-9.24 4.85-13.66 7.67-10.72 6.47-22.28 11.57-32.68 18.55 7.47 7.68 16.99 12.91 25.23 19.69 7.78 6.69 16.54 12.09 24.79 18.17-6.88 16.44-18.51 30.47-31.23 42.76-12.16 12.66-26.67 22.7-40.97 32.77-39.72 26.33-83.1 46.28-124.98 68.8-1.44-5.42-1.9-11.03-3.18-16.48-.71-3.65-2.03-7.2-2.12-10.94-.04-9-3.53-17.92-1.91-26.9 2.14-1 4.25-2.08 6.27-3.3 19.93-12.36 39.54-25.4 57.29-40.77 8.37-6.53 16.23-13.69 23.62-21.3 16.22-15.26 30.59-32.33 43.86-50.19 5.73-6.78 10.07-14.55 15.23-21.73 5.32-8.41 10.03-17.19 15.33-25.61 2.96-6.6 6.85-12.71 9.77-19.33 2.99-6.32 6.62-12.43 8.47-19.21zm113.4 62.96c3.23-.33 6.48-1.46 9.75-.71.33 2.15.77 4.3 1.18 6.46.05 15.24 1.38 30.41 3.02 45.55.58 11.09 3.09 21.94 4.58 32.93 1.93 8.22 2.68 16.67 5.06 24.78 2.66 11.49 5.58 22.91 8.83 34.25 4.22 11.73 7.53 23.8 12.55 35.24 2.5 7.97 6.53 15.31 9.89 22.93.17.41.52 1.21.69 1.61-2.23 4.88-3.89 10-6.06 14.9-4.28 7.85-7.18 16.34-11.64 24.12-3.04 4.86-4.68 10.43-7.79 15.26-2.41 3.71-3.63 8.06-6.33 11.6-5.4 9.23-10.58 18.6-16.3 27.64-3.63 5.17-7.12 10.43-10.36 15.85-4.67 6.88-9.97 13.31-14.37 20.37-2.01 3.57-4.81 6.53-7.54 9.53-2.91 4.69-6.84 8.6-10.12 13.02-5.45 5.77-9.55 12.68-15.48 18.02-4.28-7.65-9.03-15.09-12.22-23.29-9.46-21.28-12.19-44.7-13.93-67.7-.86-19.35.5-38.68 1.65-57.98.44-20.82 4.52-41.35 9.72-61.44 3.24-10.79 5.59-21.84 9.39-32.45 2.6-9.5 5.59-18.9 8.94-28.16 3.66-13.42 8.67-26.42 12.27-39.86 1.4-5.74 3.82-11.17 5.15-16.93 3.9-14.52 7.72-29.06 10.95-43.75 6.17-.54 12.35-1.13 18.52-1.79z" fill="#fef365" stroke="#fef365"/><path d="M655.78 757.412c.67-3.23 4.6-1.22 6.82-1.41 13.96.64 27.98.45 41.94-.06-.51 6.92-3.29 13.39-4.3 20.23-4.77 18.68-10.4 37.12-16.2 55.5-2.35 5.7-3.24 11.85-5.5 17.57-7 21.07-13.5 42.29-19.28 63.73-5.71 20.67-9.76 41.89-10.7 63.35-1.09 8.64-.66 17.35-1.06 26.03-1 12.32-1.03 24.73.02 37.05.36 21.46 4.38 42.86 12.13 62.9 3.17 9.62 9.76 17.61 13.49 26.95-3.68 4.18-7.91 7.86-11.18 12.41-5.22 6.78-12.4 11.61-18.05 17.99-3.07 2.58-5.68 5.66-8.65 8.35-6.76 4.88-10.87 12.39-17.1 17.83-2.61 2.86-6.2 4.59-8.73 7.53 7.47-.44 13.79-5.61 21.29-5.84-3.7 2.36-8.09 3.2-12.1 4.89-4.15 1.29-8.16 3.31-12.57 3.5-.1 1.73.13 3.44.81 5.07 4.48 15.61 8.94 31.22 13.52 46.8-12.13.85-23.76-3.84-35.8-4.13 1.49-.53 2.97-1.09 4.46-1.66-.7-1.51-1.67-2.99-1.74-4.67-.44-9 .54-18.07-.82-27.01-.49-4.48-.08-9-.27-13.48-1.81.1-3.61.16-5.4.21-3.25 4.51-7.9 7.81-10.81 12.58-2.18 3.2-3.48 7.03-6.4 9.71.55-2.78 2.06-5.19 3.32-7.67 2.88-5.44 5.42-11.06 8.43-16.43.49-1.19 1.54-2.95.43-4.04-29.6-25.43-53.82-56.48-74.95-89.14-9.74-16.25-19.23-32.7-26.98-50.01-8.96-19.05-16.98-38.62-23.02-58.8-3.72-11.18-6.26-22.7-9.55-33.99-.8-3.3-1.6-6.63-1.7-10.03l-.12-1.77 2.2.6c18.95-10.52 38.39-20.15 57.63-30.15 32.37-17.38 65.05-34.88 93.4-58.5 16.25-13.44 31.15-28.96 41.51-47.46 1.53-3.65 3.89-6.79 6.82-9.41 2.51-8.03 5.72-15.82 7.94-23.94 1.96-7.16 4.8-14.04 6.82-21.18m-62.28 446.63c-.64 5.17 1.04 10.17 1.96 15.2.8 8.43 3.43 16.54 4.59 24.93 3.96 1.17 8.08 1.87 12.21 2.06-.33-1.85-.55-3.74-1.28-5.45-3.86-8.19-7.02-16.68-10.96-24.83-1.38-4.36-3.13-8.7-6.52-11.91z" fill="#fef365" stroke="#fef365"/><path d="M567.21 1219.002c4.26-6.66 8.57-13.72 15.57-17.83-2 7.61-4.54 15.12-7.96 22.22-1.5 3.4-2.05 7.14-3.64 10.52-1.14 2.2-1.29 4.68-1.44 7.12-3.87.08-7.58-.95-11.36-1.56-.7.99-1.43 1.96-2.19 2.91 0-.44 0-1.31.01-1.74 4.4-6.82 6.94-14.64 11.01-21.64z" fill="#fef365" stroke="#fef365"/><path d="M805.71 726.932c2.8 5.23 1.14 11.47 3.42 16.84 1.03 3.04.99 6.33 1.95 9.42 1.36 4.61.69 9.48 1.42 14.19.5 5.66 1.75 11.27 1.52 16.98-.21 12.22.46 24.5-.59 36.69-1.66 7.32-1.05 14.91-2.71 22.23-.82 4.23-1.49 8.5-2.31 12.75-.73 3.71-2.18 7.29-2.29 11.11-.16 3.51.14 7.11-1.08 10.48-1.25 3.31-.77 7.18-3 10.11-2.58 3.65-2.17 8.32-3.08 12.51-.62 4.17-3.55 7.48-4.61 11.51-.73 3.73-.26 7.75-2.1 11.21-2.99 5.3-3.06 11.65-5.75 17.08-4.22 4.07-3.5 10.41-6.2 15.33-3.36-7.62-7.39-14.96-9.89-22.93-5.02-11.44-8.33-23.51-12.55-35.24-3.25-11.34-6.17-22.76-8.83-34.25-2.38-8.11-3.13-16.56-5.06-24.78-1.49-10.99-4-21.84-4.58-32.93-1.64-15.14-2.97-30.31-3.02-45.55.25-2.76.48-5.53.61-8.3 6.67-.77 13.7 1.17 20.06-1.57 4.49-1.47 9.46.49 13.9-1.19.6-1.65.71-3.43 1-5.14 4.84-.46 9.73.06 14.57-.44 1.8-.08 1.85-2.35 2.67-3.52 4.11-.47 8.26-.44 12.37.05 1.23-.06 2.78.6 3.81-.42.35-4.07.15-8.16.35-12.23z" fill="#fee354" stroke="#fee354"/><path d="M437.33 746.462c.26.24.79.72 1.05.96-4.79 20.66-8.77 41.62-9.42 62.87-1.27 9.29-.85 18.68-.96 28.03.09 6.2-.19 12.42.34 18.61.01.26.04.78.06 1.05.15 11.99 1.91 23.93 1.73 35.92l-1.09.54c.15-4.06.24-8.14-.31-12.17-1.1-8.31-1.52-16.7-1.66-25.08-.61-16.29-.05-32.59.02-48.89-.11-6.42 2.26-12.59 1.94-19.02-.26-5.14 2.03-9.93 2.11-15.05 2-9.26 3.64-18.62 6.19-27.77z" fill="#9fc2b6" stroke="#9fc2b6"/><path d="M704.54 755.942c.78-.09 1.57-.16 2.37-.21-3.23 14.69-7.05 29.23-10.95 43.75-1.33 5.76-3.75 11.19-5.15 16.93-3.6 13.44-8.61 26.44-12.27 39.86a369.65 369.65 0 00-8.94 28.16c-3.8 10.61-6.15 21.66-9.39 32.45-5.2 20.09-9.28 40.62-9.72 61.44-1.15 19.3-2.51 38.63-1.65 57.98 1.74 23 4.47 46.42 13.93 67.7 3.19 8.2 7.94 15.64 12.22 23.29-.64.63-1.25 1.29-1.85 1.96-3.73-9.34-10.32-17.33-13.49-26.95-7.75-20.04-11.77-41.44-12.13-62.9-1.05-12.32-1.02-24.73-.02-37.05.4-8.68-.03-17.39 1.06-26.03.94-21.46 4.99-42.68 10.7-63.35 5.78-21.44 12.28-42.66 19.28-63.73 2.26-5.72 3.15-11.87 5.5-17.57 5.8-18.38 11.43-36.82 16.2-55.5 1.01-6.84 3.79-13.31 4.3-20.23zm-65.48 45.74c.18-.96.36-1.92.57-2.86.46 1.22.92 2.46 1.39 3.71-2.93 2.62-5.29 5.76-6.82 9.41-10.36 18.5-25.26 34.02-41.51 47.46-28.35 23.62-61.03 41.12-93.4 58.5-19.24 10-38.68 19.63-57.63 30.15l-2.2-.6-.06-.71c41.88-22.52 85.26-42.47 124.98-68.8 14.3-10.07 28.81-20.11 40.97-32.77 12.72-12.29 24.35-26.32 31.23-42.76.81-.25 1.63-.5 2.48-.73z" fill="#f4e554" stroke="#f4e554"/><path d="M427.07 857.192c.14 8.38.56 16.77 1.66 25.08.55 4.03.46 8.11.31 12.17-17.97 9.39-36.31 18.19-55.5 24.85-.44.15-1.33.47-1.78.63-1.67.56-3.34 1.12-5.02 1.62-.82-.09-2.45-.25-3.26-.33 1.74-1.85 3.52-3.66 5.44-5.31.38-.33 1.15-.99 1.53-1.32 6.47-5.65 12.96-11.28 18.94-17.45 9.28-9.39 18.82-18.54 27.82-28.2 3.01-4.15 7.32-7.24 9.86-11.74z" fill="#5ca4f0" stroke="#5ca4f0"/><path d="M428.4 857.982c2.14 8.6 1.61 17.57 1.85 26.36.03 2.81 1.09 5.44 1.94 8.08-1.62 8.98 1.87 17.9 1.91 26.9.09 3.74 1.41 7.29 2.12 10.94 1.28 5.45 1.74 11.06 3.18 16.48l.06.71.12 1.77-.16-.21c-.31-.4-.92-1.2-1.23-1.6-3.87-17.64-7.05-35.48-8.06-53.51.18-11.99-1.58-23.93-1.73-35.92z" fill="#f0f2aa" stroke="#f0f2aa"/><path d="M371.76 919.922c.45-.16 1.34-.48 1.78-.63 6.73 8.62 13.43 17.26 20.03 25.98 5.02 6.34 9.39 13.19 14.65 19.33-.4.24-1.2.73-1.61.98-11.53-15.29-22.89-30.71-34.85-45.66zm36 47.44c.28-.15.83-.44 1.11-.58 3.84 3.7 6.27 8.61 9.44 12.88 8.43 12.58 16.3 25.58 22.63 39.36 15.98 36.23 32.41 73.3 36.17 113.17 1.89 21.36-.7 43.19-8.48 63.23-14.3 37.55-38.6 69.96-60.82 103.05-14.68 21.44-28.27 43.74-38.67 67.61-.06-1.11-.1-2.15-.18-3.21.43-1.06.87-2.09 1.33-3.09 25.11-56.84 70.71-101.89 94.54-159.41 8.29-19.17 11.99-40.23 10.97-61.08-1.03-23.01-7.03-45.5-14.78-67.09-6.61-18.56-14.64-36.58-22.63-54.58-8.4-17.79-19.35-34.2-30.63-50.26zm-42.44 404.44c.16.37.49 1.12.65 1.49-.23 1.08-.48 2.17-.73 3.28-2.49 7.04-4.69 14.2-6.25 21.51-.46-.09-1.38-.27-1.83-.36 2.25-8.78 4.68-17.55 8.16-25.92z" fill="#4e9b59" stroke="#4e9b59"/><path d="M324.55 967.892c5.72-15.13 10.54-30.59 16.62-45.59.78 15.88.94 31.79 1.67 47.68 1.28.37 2.58.78 3.89 1.15-7.5-.28-14.79-2.15-22.18-3.24z" fill="#58a1ee" stroke="#58a1ee"/><path d="M319.62 945.392c6.14-7.28 10.88-15.78 18.02-22.24 1.25 2.12-.95 3.6-2.12 5.1-10.18 10.96-17.65 24.2-22.88 38.16-10.03 28.24-8.9 58.94-4.81 88.21-.29.4-.87 1.21-1.16 1.61-4.65-26.75-5.49-54.74 1.45-81.19.61-3.27 2.72-6.38 1.98-9.79-.48-2.09 1.11-3.8 1.91-5.57 2.69-4.68 4.45-9.91 7.61-14.29zm-12.42 111.86c.25-.22.75-.67 1-.89 8.86 53.67 28.57 104.61 43.87 156.61 6.22 21.42 11.92 43.11 14.48 65.32 1.15 9.88 1.23 19.86 2.17 29.77-.21 5.56.2 11.11.31 16.68-.48.89-.94 1.8-1.4 2.74-.21-12.74-1.16-25.44-1.92-38.14-1.24-22.58-6.61-44.66-12.59-66.39-12.4-43.73-28.3-86.44-39.25-130.59-2.61-11.06-5.27-22.13-6.83-33.39zm60.43 292.82c.41.93.83 1.86 1.28 2.81-.18 3.32-.4 6.66.05 9.99.08 1.06.12 2.1.18 3.21-1.83 7.27-1.83 14.87-3.49 22.2-3.51 20.2-10.68 39.89-21.94 57.09-8.98 13.65-20.63 25.27-32.57 36.33-28.87 26.04-62.15 46.45-92.64 70.45-21.35 16.83-41.65 35.62-56.69 58.46-.44 1.02-1.98 2.45-2.94.97 20.58-31.29 49.97-55.33 80.06-77.03 31.89-23.3 65.58-45.13 91.75-75.13 18.02-20.03 28.92-45.72 33.37-72.12.6-3.56 1.47-7.1 1.19-10.73.25-1.11.5-2.2.73-3.28-.16-.37-.49-1.12-.65-1.49l-.11-.24c2.95-6.76 1.75-14.34 2.42-21.49z" fill="#5698e2" stroke="#5698e2"/><path d="M351.91 951.182c-1.46-8.59-3.97-17.09-4.13-25.82 6.94 15.89 13.82 31.82 20.19 47.94l-2.63.68c-3.27-.42-6.51-.93-9.77-1.4-.8-7.2-2.42-14.27-3.66-21.4z" fill="#58a1ed" stroke="#58a1ed"/><path d="M408.22 964.602c9.8-6.05 19.89-11.63 29.97-17.19.31.4.92 1.2 1.23 1.6-10.29 5.72-20.9 11.01-30.55 17.77-.28.14-.83.43-1.11.58-15.57 8.87-29.74 20.04-43.01 32.04-16.44 14.55-32.74 29.37-47.05 46.05-3.32 3.51-5.83 7.75-9.5 10.91-.25.22-.75.67-1 .89l-.16 1.72c-18.11 23.09-30.01 51.51-31.57 80.99-1.65 9.34-.62 18.89-.58 28.31l-1.13 1.98c-.51-10.35-.91-20.85.17-31.14.83-2.07.9-4.3.58-6.47 2.22-28.03 15.07-54.42 32.16-76.41.29-.4.87-1.21 1.16-1.61 17.72-23.13 39.64-42.54 61.44-61.69 11.49-10.36 24.22-19.21 37.34-27.35.41-.25 1.21-.74 1.61-.98z" fill="#c25582" stroke="#c25582"/><path d="M781.01 956.982c1.32 3.67-2.02 7.18-.7 10.84 1.48-1.73 3.02-3.44 4.91-4.73.26 2.67.51 5.41 1.67 7.9 1.86 4.24 3.25 9.02 6.93 12.11 3.19 2.45 2.92 6.92 4.79 10.16 1.06.99 2.28 1.8 3.37 2.8 1.34 2.41 1.13 5.57 3.18 7.64 2.46 2.56 3.5 6.02 5.16 9.09 1.24 2.41 4.92 2.27 5.83 5 1.81 3.73 2.92 8.16 6.7 10.48-.18.29-.54.86-.72 1.15-16.17 24.99-35.2 48.09-56.41 68.98-20.58 21.04-44.14 38.97-68.7 55.1l-1.13.36c.21.25.62.75.83 1-1.58-.24-2.98.28-4.2 1.24-19.29 12.32-39.9 22.38-60.9 31.37l-.87.05c-7.5.23-13.82 5.4-21.29 5.84 2.53-2.94 6.12-4.67 8.73-7.53 6.23-5.44 10.34-12.95 17.1-17.83 2.97-2.69 5.58-5.77 8.65-8.35 5.65-6.38 12.83-11.21 18.05-17.99 3.27-4.55 7.5-8.23 11.18-12.41.6-.67 1.21-1.33 1.85-1.96 5.93-5.34 10.03-12.25 15.48-18.02 3.28-4.42 7.21-8.33 10.12-13.02 2.73-3 5.53-5.96 7.54-9.53 4.4-7.06 9.7-13.49 14.37-20.37 3.24-5.42 6.73-10.68 10.36-15.85 5.72-9.04 10.9-18.41 16.3-27.64 2.7-3.54 3.92-7.89 6.33-11.6 3.11-4.83 4.75-10.4 7.79-15.26 4.46-7.78 7.36-16.27 11.64-24.12 2.17-4.9 3.83-10.02 6.06-14.9z" fill="#fcf03c" stroke="#fcf03c"/><path d="M882.41 1136.202c3.84-10.99 7.6-22.02 11.74-32.9.71 8.32.91 16.68.92 25.04-.06 7.67 1.23 15.32.67 23-.53.15-1.6.44-2.13.59-5.14-.76-10.21-1.99-15.37-2.56.84-4.56 2.7-8.81 4.17-13.17z" fill="#fe1818" stroke="#fe1818"/><path d="M899.81 1104.302c7.52 16.79 14.4 33.87 21.81 50.71 1.29.39 2.62.83 3.97 1.21-5.81-.79-11.62-1.54-17.4-2.47v-.1c.23-6.24-1.82-12.24-2.72-18.34-1.72-10.37-4.24-20.6-5.66-31.01zm20.04 380.51c2.08 5.94.17 12.37.61 18.53-.14-6.19-.65-12.36-.61-18.53z" fill="#fc1718" stroke="#fc1718"/><path d="M874.11 1125.102c5.02-7.32 10.07-14.84 16.81-20.71.86 1.53.03 3-1.09 4.07-10.75 11.1-18.52 24.8-24.01 39.17-.23.65-.67 1.95-.89 2.6-.29-.53-.87-1.6-1.16-2.14-.6-1.07-1.33-2.24-.59-3.43 3.13-6.72 7.1-13.1 9.72-20.03l.43-.01c.19.12.59.36.78.48z" fill="#ea2020" stroke="#ea2020"/><path d="M273.93 1139.102c-.98-1.73-1.34-5.6.58-6.47.32 2.17.25 4.4-.58 6.47z" fill="#f686b5" stroke="#f686b5"/><path d="M274.89 1168.302c-.04-9.42-1.07-18.97.58-28.31.59 5.43-.36 10.88-.11 16.33-.06 4.31.77 8.73.12 12.99l-.97 1.18c-.21 2.37-.18 4.76-.2 7.17-.45-2.41-1.34-4.99-.55-7.38z" fill="#f480b2" stroke="#f480b2"/><path d="M863.81 1148.102c.29.54.87 1.61 1.16 2.14-8.16 24.57-8.24 51.02-5.11 76.48 5.18 40.81 17.89 80.12 30.28 119.19 7.53 23.63 15.27 47.23 21.42 71.28 4.59 18 8.19 36.34 9.2 54.92-.27 4.19-.14 8.41.68 12.54 1.34 21.84 2.37 43.88-.18 65.66a10.35 10.35 0 00-.6 5.65c-1.92 20.54-7.56 40.95-17.12 59.31-8.12 15.7-19.84 29.16-32.48 41.38-27.74 26.52-60.34 47.08-90.86 70.12-24.29 18.43-47.69 38.86-64.78 64.36-.89 1.06-1.5 2.89-3.28 2.58 2-5.21 6.05-9.34 9.23-13.86 24.2-31.25 56.86-54.22 88.69-77.01 19.33-13.81 38.6-27.84 56.05-44 12.8-12.09 25.12-25.06 33.74-40.55 11.25-19.6 16.94-41.9 19.45-64.23 1.57-16.86 2.26-33.84 1.24-50.75-.44-6.16 1.47-12.59-.61-18.53-1.19-11.48-1.3-23.16-3.29-34.57-3.1-20.28-8.58-40.1-14.39-59.73-13.92-46.57-31.03-92.33-40.4-140.14-6.41-33.6-9.41-69.35 1.96-102.24z" fill="#a92423" stroke="#a92423"/><path d="M695.86 1153.902l1.13-.36c26.15 25.49 56.9 45.59 86.25 67.16 24.14 17.81 47.65 37.13 65.9 61.15 2.81 4.05 6.23 7.78 8.29 12.31-2.34-.2-2.92-2.84-4.24-4.34-22.37-32.49-54.43-56.37-86.13-79.09-24.28-17.5-49.16-34.59-70.37-55.83-.21-.25-.62-.75-.83-1zm-404.16 182c.46 3.19.69 6.41.72 9.65a128.71 128.71 0 01-3.38 22.67c-1.64-.38-.79-2.24-.68-3.36 2.06-9.52 3.02-19.24 3.34-28.96z" fill="#a92423" stroke="#a92423"/><path d="M274.51 1170.502l.97-1.18c2.5 44.33 14.21 87.54 17.32 131.78-.26 2.88-.02 5.78.62 8.61.53 8.52.52 17.12.06 25.66l-.98-1.22c-.46-7.03.82-14.15-.74-21.11-1.89-45.58-14.09-89.96-17.45-135.37.02-2.41-.01-4.8.2-7.17z" fill="#c65b88" stroke="#c65b88"/><path d="M580.81 1197.002c1.79-.05 3.59-.11 5.4-.21.19 4.48-.22 9 .27 13.48 1.36 8.94.38 18.01.82 27.01.07 1.68 1.04 3.16 1.74 4.67-1.49.57-2.97 1.13-4.46 1.66-4.95-.9-9.88-1.83-14.84-2.63.15-2.44.3-4.92 1.44-7.12 1.59-3.38 2.14-7.12 3.64-10.52 3.42-7.1 5.96-14.61 7.96-22.22-7 4.11-11.31 11.17-15.57 17.83-4.07 7-6.61 14.82-11.01 21.64-1.77-6.27 4.18-10.76 4.99-16.61.28-1.8 1-3.51 2.41-4.69 2.92-2.68 4.22-6.51 6.4-9.71 2.91-4.77 7.56-8.07 10.81-12.58z" fill="#fbf037" stroke="#fbf037"/><path d="M593.5 1204.002c3.39 3.21 5.14 7.55 6.52 11.91 3.94 8.15 7.1 16.64 10.96 24.83.73 1.71.95 3.6 1.28 5.45-4.13-.19-8.25-.89-12.21-2.06-1.16-8.39-3.79-16.5-4.59-24.93-.92-5.03-2.6-10.03-1.96-15.2z" fill="#faf037" stroke="#faf037"/><path d="M557.16 1230.702c1.31-2.26 1.88-5.06 4.03-6.71-.81 5.85-6.76 10.34-4.99 16.61-.01.43-.01 1.3-.01 1.74-1.05 7.03-4.05 13.75-4.45 20.93-.27 4.02-1.75 7.88-1.7 11.94-.22 10.67-.32 21.36.08 32.03 1.08 5.6 1.73 11.28 2.02 16.99.96 3.95 1.7 7.96 1.96 12.04 3.56 16.08 6.83 32.21 11.6 47.99 10.65 38.8 24.49 76.68 35.25 115.45 3.77 15.11 7.9 30.1 9.6 45.61 2.3 7.82.57 16.08 2.39 23.97 1.45 21.96 1.38 44.02.92 66.04-.35 4.35-.64 8.74-1.65 13.02-.35 3.99-.22 8.08-1.61 11.92-2.26 15.32-7.12 30.27-13.93 44.22-9.15 19.02-23.72 34.64-38.99 48.93-27.92 25.61-60.23 45.71-90.19 68.75-20.57 15.91-40.27 33.34-55.69 54.42-2.49 3.13-4.57 6.6-7.37 9.49-1.52-2.04.39-4.03 1.45-5.71 21.1-30.52 50.51-53.94 80.43-75.33 32.09-23.43 65.91-45.59 91.62-76.36 17.45-20.67 27.16-46.92 31.28-73.35.03-4.77 1.28-9.37 1.93-14.04.16-14.98 1.72-29.98.27-44.94-.16-6.93.01-13.86-.3-20.77-1.29-8.37-1.66-16.85-1.99-25.29-.77-4.02-1.9-8-1.89-12.13-6.36-34.45-17.63-67.86-28.18-101.28-10.86-33.72-21.38-67.71-27.66-102.56-.06-5.12-2.22-9.94-2.12-15.07.22-3.84-1.01-7.5-1.34-11.27-1.03-7.19-.44-14.46-.59-21.68-.35-11.44 1.59-22.8 3.89-33.93.43-4.61 3.4-8.75 2.9-13.49-.37-3.08 1.87-5.54 3.03-8.18z" fill="#eae470" stroke="#eae470"/><path d="M292.8 1301.102c.85 2.77 1.24 5.72.62 8.61-.64-2.83-.88-5.73-.62-8.61z" fill="#f98fc0" stroke="#f98fc0"/><path d="M368.72 1308.102c.69 5.22 1.08 10.51.75 15.8l-.44.88c-.11-5.57-.52-11.12-.31-16.68z" fill="#b0dbfc" stroke="#b0dbfc"/><path d="M291.76 1313.002c1.56 6.96.28 14.08.74 21.11l.98 1.22c.31 3.26.35 7.09-1.06 10.18-.03-3.24-.26-6.46-.72-9.65-.17-7.61-.1-15.25.06-22.86z" fill="#ee75a9" stroke="#ee75a9"/><path d="M369.03 1324.702l.44-.88c.21 9.96.56 19.97-.16 29.93l-.4-.91c-.45-.95-.87-1.88-1.28-2.81-.04-7.52-.12-15.07 0-22.59.46-.94.92-1.85 1.4-2.74z" fill="#75a9dc" stroke="#75a9dc"/><path d="M368.91 1352.902l.4.91c.32 1.98.63 3.98.98 5.99-.46 1-.9 2.03-1.33 3.09-.45-3.33-.23-6.67-.05-9.99z" fill="#9dd8f2" stroke="#9dd8f2"/><path d="M920.71 1472.102c.83 4.1 1.54 8.37.68 12.54-.82-4.13-.95-8.35-.68-12.54z" fill="#fb8d8a" stroke="#fb8d8a"/><path d="M920.61 1556.002c-.33-1.93-.12-3.87.6-5.65 1.05 1.42 1.27 5.03-.6 5.65z" fill="#fc8687" stroke="#fc8687"/></g></svg>